<svg width="544" height="388" viewBox="0 0 544 388" fill="none" xmlns="http://www.w3.org/2000/svg">
<path d="M25.1427 78.9989C29.93 78.9989 33.811 75.1222 33.811 70.34C33.811 65.5578 29.93 61.681 25.1427 61.681C20.3553 61.681 16.4744 65.5578 16.4744 70.34C16.4744 75.1222 20.3553 78.9989 25.1427 78.9989Z" fill="#E6E6E6"/>
<path d="M51.1476 78.9989C55.935 78.9989 59.8159 75.1222 59.8159 70.34C59.8159 65.5578 55.935 61.681 51.1476 61.681C46.3602 61.681 42.4793 65.5578 42.4793 70.34C42.4793 75.1222 46.3602 78.9989 51.1476 78.9989Z" fill="#E6E6E6"/>
<path d="M77.1525 78.9989C81.9399 78.9989 85.8208 75.1222 85.8208 70.34C85.8208 65.5578 81.9399 61.681 77.1525 61.681C72.3651 61.681 68.4842 65.5578 68.4842 70.34C68.4842 75.1222 72.3651 78.9989 77.1525 78.9989Z" fill="#E6E6E6"/>
<path d="M103.157 78.9989C107.945 78.9989 111.826 75.1222 111.826 70.34C111.826 65.5578 107.945 61.681 103.157 61.681C98.3701 61.681 94.4891 65.5578 94.4891 70.34C94.4891 75.1222 98.3701 78.9989 103.157 78.9989Z" fill="#E6E6E6"/>
<path d="M129.162 78.9989C133.95 78.9989 137.831 75.1222 137.831 70.34C137.831 65.5578 133.95 61.681 129.162 61.681C124.375 61.681 120.494 65.5578 120.494 70.34C120.494 75.1222 124.375 78.9989 129.162 78.9989Z" fill="#E6E6E6"/>
<path d="M155.167 78.9989C159.955 78.9989 163.836 75.1222 163.836 70.34C163.836 65.5578 159.955 61.681 155.167 61.681C150.38 61.681 146.499 65.5578 146.499 70.34C146.499 75.1222 150.38 78.9989 155.167 78.9989Z" fill="#E6E6E6"/>
<path d="M181.172 78.9989C185.96 78.9989 189.84 75.1222 189.84 70.34C189.84 65.5578 185.96 61.681 181.172 61.681C176.385 61.681 172.504 65.5578 172.504 70.34C172.504 75.1222 176.385 78.9989 181.172 78.9989Z" fill="#E6E6E6"/>
<path d="M201.203 80.8846H5.11192C4.1767 80.8835 3.28009 80.5119 2.61878 79.8513C1.95748 79.1907 1.58548 78.2951 1.58438 77.3609V63.3193C1.58548 62.3851 1.95748 61.4894 2.61878 60.8288C3.28009 60.1682 4.1767 59.7966 5.11192 59.7955H201.203C202.138 59.7966 203.035 60.1682 203.696 60.8288C204.357 61.4894 204.729 62.3851 204.731 63.3193V77.3609C204.729 78.2951 204.357 79.1907 203.696 79.8513C203.035 80.5119 202.138 80.8835 201.203 80.8846ZM5.11192 61.205C4.55077 61.2057 4.01278 61.4286 3.61599 61.825C3.2192 62.2213 2.99601 62.7587 2.9954 63.3193V77.3609C2.99601 77.9214 3.2192 78.4588 3.61599 78.8552C4.01278 79.2515 4.55077 79.4745 5.11192 79.4751H201.203C201.764 79.4745 202.302 79.2515 202.699 78.8552C203.096 78.4588 203.319 77.9214 203.32 77.3609V63.3193C203.319 62.7587 203.096 62.2213 202.699 61.825C202.302 61.4286 201.764 61.2056 201.203 61.205L5.11192 61.205Z" fill="#E6E6E6"/>
<path d="M47.0766 2.02459C47.614 2.02521 48.1291 2.23871 48.5091 2.61826C48.8891 2.99781 49.1028 3.5124 49.1034 4.04916V47.9217C49.1028 48.4585 48.8891 48.9731 48.5091 49.3527C48.1291 49.7322 47.614 49.9457 47.0766 49.9463H4.05362C3.51628 49.9457 3.00112 49.7322 2.62116 49.3527C2.24121 48.9731 2.02747 48.4585 2.02686 47.9217V4.0492C2.02747 3.51244 2.24121 2.99783 2.62116 2.61829C3.00112 2.23874 3.51628 2.02524 4.05362 2.02462H47.0766V2.02459ZM47.0766 2.90798e-05H4.05362C2.97855 2.90798e-05 1.9475 0.426638 1.18731 1.18601C0.427111 1.94538 3.05176e-05 2.97531 3.05176e-05 4.04923V47.9217C3.05176e-05 48.9957 0.427111 50.0256 1.18731 50.785C1.9475 51.5443 2.97855 51.9709 4.05362 51.9709H47.0766C48.1517 51.9709 49.1828 51.5443 49.943 50.785C50.7032 50.0256 51.1302 48.9957 51.1302 47.9217V4.0492C51.1302 2.97528 50.7032 1.94535 49.943 1.18598C49.1828 0.426609 48.1517 1.6848e-06 47.0766 0V2.90798e-05Z" fill="#E6E6E6"/>
<path d="M40.366 13.5568H11.6613C11.5277 13.5576 11.3953 13.5321 11.2716 13.4816C11.148 13.431 11.0355 13.3566 10.9407 13.2625C10.846 13.1685 10.7708 13.0566 10.7195 12.9334C10.6681 12.8101 10.6417 12.678 10.6417 12.5445C10.6417 12.4111 10.6681 12.2789 10.7195 12.1557C10.7708 12.0325 10.846 11.9206 10.9407 11.8265C11.0355 11.7325 11.148 11.658 11.2716 11.6075C11.3953 11.557 11.5277 11.5314 11.6613 11.5322H40.366C40.4996 11.5314 40.632 11.557 40.7557 11.6075C40.8794 11.658 40.9918 11.7325 41.0866 11.8265C41.1813 11.9206 41.2565 12.0325 41.3079 12.1557C41.3592 12.2789 41.3856 12.4111 41.3856 12.5445C41.3856 12.678 41.3592 12.8101 41.3079 12.9334C41.2565 13.0566 41.1813 13.1685 41.0866 13.2625C40.9918 13.3566 40.8794 13.431 40.7557 13.4816C40.632 13.5321 40.4996 13.5576 40.366 13.5568Z" fill="#F9A826"/>
<path d="M40.366 20.7254H11.6613C11.5277 20.7262 11.3953 20.7006 11.2716 20.6501C11.148 20.5996 11.0355 20.5252 10.9407 20.4311C10.846 20.337 10.7708 20.2252 10.7195 20.1019C10.6681 19.9787 10.6417 19.8466 10.6417 19.7131C10.6417 19.5796 10.6681 19.4475 10.7195 19.3243C10.7708 19.2011 10.846 19.0892 10.9407 18.9951C11.0355 18.901 11.148 18.8266 11.2716 18.7761C11.3953 18.7256 11.5277 18.7 11.6613 18.7008H40.366C40.4996 18.7 40.632 18.7256 40.7557 18.7761C40.8794 18.8266 40.9918 18.901 41.0866 18.9951C41.1813 19.0892 41.2565 19.2011 41.3079 19.3243C41.3592 19.4475 41.3856 19.5796 41.3856 19.7131C41.3856 19.8466 41.3592 19.9787 41.3079 20.1019C41.2565 20.2252 41.1813 20.337 41.0866 20.4311C40.9918 20.5252 40.8794 20.5996 40.7557 20.6501C40.632 20.7006 40.4996 20.7262 40.366 20.7254Z" fill="#F9A826"/>
<path d="M40.366 27.8936H11.6613C11.5277 27.8944 11.3953 27.8688 11.2716 27.8183C11.148 27.7678 11.0355 27.6934 10.9407 27.5993C10.846 27.5052 10.7708 27.3934 10.7195 27.2701C10.6681 27.1469 10.6417 27.0148 10.6417 26.8813C10.6417 26.7479 10.6681 26.6157 10.7195 26.4925C10.7708 26.3693 10.846 26.2574 10.9407 26.1633C11.0355 26.0692 11.148 25.9948 11.2716 25.9443C11.3953 25.8938 11.5277 25.8682 11.6613 25.869H40.366C40.4996 25.8682 40.632 25.8938 40.7557 25.9443C40.8794 25.9948 40.9918 26.0692 41.0866 26.1633C41.1813 26.2574 41.2565 26.3693 41.3079 26.4925C41.3592 26.6157 41.3856 26.7479 41.3856 26.8813C41.3856 27.0148 41.3592 27.1469 41.3079 27.2701C41.2565 27.3934 41.1813 27.5052 41.0866 27.5993C40.9918 27.6934 40.8794 27.7678 40.7557 27.8183C40.632 27.8688 40.4996 27.8944 40.366 27.8936Z" fill="#F9A826"/>
<path d="M40.366 35.0622H11.6613C11.5277 35.063 11.3953 35.0374 11.2716 34.9869C11.148 34.9364 11.0355 34.862 10.9407 34.7679C10.846 34.6738 10.7708 34.5619 10.7195 34.4387C10.6681 34.3155 10.6417 34.1834 10.6417 34.0499C10.6417 33.9164 10.6681 33.7843 10.7195 33.6611C10.7708 33.5378 10.846 33.426 10.9407 33.3319C11.0355 33.2378 11.148 33.1634 11.2716 33.1129C11.3953 33.0624 11.5277 33.0368 11.6613 33.0376H40.366C40.4996 33.0368 40.632 33.0624 40.7557 33.1129C40.8794 33.1634 40.9918 33.2378 41.0866 33.3319C41.1813 33.426 41.2565 33.5378 41.3079 33.6611C41.3592 33.7843 41.3856 33.9164 41.3856 34.0499C41.3856 34.1834 41.3592 34.3155 41.3079 34.4387C41.2565 34.5619 41.1813 34.6738 41.0866 34.7679C40.9918 34.862 40.8794 34.9364 40.7557 34.9869C40.632 35.0374 40.4996 35.063 40.366 35.0622Z" fill="#F9A826"/>
<path d="M40.366 42.2309H11.6613C11.3925 42.2309 11.1348 42.1243 10.9447 41.9344C10.7547 41.7446 10.6479 41.4871 10.6479 41.2186C10.6479 40.9501 10.7547 40.6926 10.9447 40.5028C11.1348 40.313 11.3925 40.2063 11.6613 40.2063H40.366C40.6347 40.2063 40.8925 40.313 41.0825 40.5028C41.2726 40.6926 41.3794 40.9501 41.3794 41.2186C41.3794 41.4871 41.2726 41.7446 41.0825 41.9344C40.8925 42.1243 40.6347 42.2309 40.366 42.2309Z" fill="#F9A826"/>
<path d="M194.019 2.02459C194.556 2.02521 195.072 2.23871 195.452 2.61826C195.831 2.99781 196.045 3.5124 196.046 4.04916V47.9217C196.045 48.4585 195.831 48.9731 195.452 49.3527C195.072 49.7322 194.556 49.9457 194.019 49.9463H150.996C150.459 49.9457 149.944 49.7322 149.564 49.3527C149.184 48.9731 148.97 48.4585 148.969 47.9217V4.0492C148.97 3.51244 149.184 2.99783 149.564 2.61829C149.944 2.23874 150.459 2.02524 150.996 2.02462H194.019V2.02459ZM194.019 2.90798e-05H150.996C149.921 2.90798e-05 148.89 0.426638 148.13 1.18601C147.37 1.94538 146.942 2.97531 146.942 4.04923V47.9217C146.942 48.9957 147.37 50.0256 148.13 50.785C148.89 51.5443 149.921 51.9709 150.996 51.9709H194.019C195.094 51.9709 196.125 51.5443 196.885 50.785C197.646 50.0256 198.073 48.9957 198.073 47.9217V4.0492C198.073 2.97528 197.646 1.94535 196.885 1.18598C196.125 0.426609 195.094 0 194.019 0V2.90798e-05Z" fill="#E6E6E6"/>
<path d="M187.308 13.5568H158.604C158.47 13.5576 158.338 13.5321 158.214 13.4816C158.09 13.431 157.978 13.3566 157.883 13.2625C157.788 13.1685 157.713 13.0566 157.662 12.9334C157.611 12.8101 157.584 12.678 157.584 12.5445C157.584 12.4111 157.611 12.2789 157.662 12.1557C157.713 12.0325 157.788 11.9206 157.883 11.8265C157.978 11.7325 158.09 11.658 158.214 11.6075C158.338 11.557 158.47 11.5314 158.604 11.5322H187.308C187.576 11.5339 187.832 11.6413 188.021 11.8309C188.21 12.0206 188.316 12.2771 188.316 12.5445C188.316 12.8119 188.21 13.0685 188.021 13.2581C187.832 13.4478 187.576 13.5552 187.308 13.5568H187.308Z" fill="#F9A826"/>
<path d="M187.308 20.7254H158.604C158.47 20.7262 158.338 20.7006 158.214 20.6501C158.09 20.5996 157.978 20.5252 157.883 20.4311C157.788 20.337 157.713 20.2252 157.662 20.1019C157.611 19.9787 157.584 19.8466 157.584 19.7131C157.584 19.5796 157.611 19.4475 157.662 19.3243C157.713 19.2011 157.788 19.0892 157.883 18.9951C157.978 18.901 158.09 18.8266 158.214 18.7761C158.338 18.7256 158.47 18.7 158.604 18.7008H187.308C187.576 18.7025 187.832 18.8098 188.021 18.9995C188.21 19.1892 188.316 19.4457 188.316 19.7131C188.316 19.9805 188.21 20.2371 188.021 20.4267C187.832 20.6164 187.576 20.7238 187.308 20.7254H187.308Z" fill="#F9A826"/>
<path d="M187.308 27.8936H158.604C158.47 27.8944 158.338 27.8688 158.214 27.8183C158.09 27.7678 157.978 27.6934 157.883 27.5993C157.788 27.5052 157.713 27.3934 157.662 27.2701C157.611 27.1469 157.584 27.0148 157.584 26.8813C157.584 26.7479 157.611 26.6157 157.662 26.4925C157.713 26.3693 157.788 26.2574 157.883 26.1633C157.978 26.0692 158.09 25.9948 158.214 25.9443C158.338 25.8938 158.47 25.8682 158.604 25.869H187.308C187.576 25.8707 187.832 25.978 188.021 26.1677C188.21 26.3574 188.316 26.6139 188.316 26.8813C188.316 27.1487 188.21 27.4053 188.021 27.5949C187.832 27.7846 187.576 27.892 187.308 27.8936H187.308Z" fill="#F9A826"/>
<path d="M187.308 35.0622H158.604C158.47 35.063 158.338 35.0374 158.214 34.9869C158.09 34.9364 157.978 34.862 157.883 34.7679C157.788 34.6738 157.713 34.5619 157.662 34.4387C157.611 34.3155 157.584 34.1834 157.584 34.0499C157.584 33.9164 157.611 33.7843 157.662 33.6611C157.713 33.5378 157.788 33.426 157.883 33.3319C157.978 33.2378 158.09 33.1634 158.214 33.1129C158.338 33.0624 158.47 33.0368 158.604 33.0376H187.308C187.576 33.0393 187.832 33.1466 188.021 33.3363C188.21 33.526 188.316 33.7825 188.316 34.0499C188.316 34.3173 188.21 34.5738 188.021 34.7635C187.832 34.9532 187.576 35.0605 187.308 35.0622H187.308Z" fill="#F9A826"/>
<path d="M187.308 42.2309H158.604C158.335 42.2309 158.077 42.1243 157.887 41.9344C157.697 41.7446 157.59 41.4871 157.59 41.2186C157.59 40.9501 157.697 40.6926 157.887 40.5028C158.077 40.313 158.335 40.2063 158.604 40.2063H187.308C187.577 40.2063 187.835 40.313 188.025 40.5028C188.215 40.6926 188.322 40.9501 188.322 41.2186C188.322 41.4871 188.215 41.7446 188.025 41.9344C187.835 42.1243 187.577 42.2309 187.308 42.2309H187.308Z" fill="#F9A826"/>
<path d="M340.248 86.3814C340.785 86.382 341.3 86.5955 341.68 86.9751C342.06 87.3546 342.274 87.8692 342.275 88.406V132.279C342.274 132.815 342.06 133.33 341.68 133.709C341.3 134.089 340.785 134.302 340.248 134.303H297.225C296.687 134.302 296.172 134.089 295.792 133.709C295.412 133.33 295.199 132.815 295.198 132.279V88.406C295.199 87.8693 295.412 87.3546 295.792 86.9751C296.172 86.5956 296.687 86.3821 297.225 86.3814H340.248V86.3814ZM340.248 84.3569H297.225C296.15 84.3569 295.119 84.7835 294.358 85.5429C293.598 86.3022 293.171 87.3322 293.171 88.4061V132.279C293.171 133.353 293.598 134.382 294.358 135.142C295.119 135.901 296.15 136.328 297.225 136.328H340.248C341.323 136.328 342.354 135.901 343.114 135.142C343.874 134.382 344.301 133.353 344.301 132.279V88.406C344.301 87.3321 343.874 86.3022 343.114 85.5428C342.354 84.7834 341.323 84.3568 340.248 84.3568V84.3569Z" fill="#F9A826"/>
<path d="M333.537 97.9136H304.833C304.699 97.9145 304.566 97.8889 304.443 97.8384C304.319 97.7879 304.207 97.7134 304.112 97.6193C304.017 97.5253 303.942 97.4134 303.891 97.2902C303.839 97.167 303.813 97.0348 303.813 96.9013C303.813 96.7679 303.839 96.6358 303.891 96.5125C303.942 96.3893 304.017 96.2774 304.112 96.1833C304.207 96.0893 304.319 96.0148 304.443 95.9643C304.566 95.9138 304.699 95.8882 304.833 95.8891H333.537C333.805 95.8907 334.061 95.9981 334.25 96.1877C334.438 96.3774 334.544 96.6339 334.544 96.9013C334.544 97.1687 334.438 97.4253 334.25 97.6149C334.061 97.8046 333.805 97.912 333.537 97.9136Z" fill="#F9A826"/>
<path d="M333.537 105.082H304.833C304.564 105.082 304.306 104.976 304.116 104.786C303.926 104.596 303.819 104.338 303.819 104.07C303.819 103.801 303.926 103.544 304.116 103.354C304.306 103.164 304.564 103.058 304.833 103.058H333.537C333.806 103.058 334.064 103.164 334.254 103.354C334.444 103.544 334.551 103.801 334.551 104.07C334.551 104.338 334.444 104.596 334.254 104.786C334.064 104.976 333.806 105.082 333.537 105.082Z" fill="#F9A826"/>
<path d="M333.537 112.25H304.833C304.699 112.251 304.567 112.225 304.443 112.175C304.32 112.124 304.207 112.05 304.113 111.956C304.018 111.862 303.943 111.75 303.892 111.627C303.84 111.504 303.814 111.371 303.814 111.238C303.814 111.105 303.84 110.973 303.892 110.85C303.943 110.726 304.018 110.615 304.113 110.521C304.207 110.426 304.32 110.352 304.443 110.301C304.567 110.251 304.699 110.225 304.833 110.226H333.537C333.805 110.227 334.061 110.335 334.25 110.525C334.438 110.714 334.544 110.971 334.544 111.238C334.544 111.506 334.438 111.762 334.25 111.952C334.061 112.141 333.805 112.249 333.537 112.25Z" fill="#F9A826"/>
<path d="M333.537 119.419H304.833C304.699 119.42 304.566 119.394 304.443 119.344C304.319 119.293 304.207 119.219 304.112 119.125C304.017 119.031 303.942 118.919 303.891 118.796C303.839 118.672 303.813 118.54 303.813 118.407C303.813 118.273 303.839 118.141 303.891 118.018C303.942 117.895 304.017 117.783 304.112 117.689C304.207 117.595 304.319 117.52 304.443 117.47C304.566 117.419 304.699 117.394 304.833 117.394H333.537C333.805 117.396 334.061 117.503 334.25 117.693C334.438 117.883 334.544 118.139 334.544 118.407C334.544 118.674 334.438 118.931 334.25 119.12C334.061 119.31 333.805 119.417 333.537 119.419Z" fill="#F9A826"/>
<path d="M333.537 126.588H304.833C304.699 126.589 304.566 126.563 304.443 126.512C304.319 126.462 304.207 126.388 304.112 126.293C304.017 126.199 303.942 126.087 303.891 125.964C303.839 125.841 303.813 125.709 303.813 125.575C303.813 125.442 303.839 125.31 303.891 125.187C303.942 125.063 304.017 124.951 304.112 124.857C304.207 124.763 304.319 124.689 304.443 124.638C304.566 124.588 304.699 124.562 304.833 124.563H333.537C333.805 124.565 334.061 124.672 334.25 124.862C334.438 125.051 334.544 125.308 334.544 125.575C334.544 125.843 334.438 126.099 334.25 126.289C334.061 126.479 333.805 126.586 333.537 126.588Z" fill="#F9A826"/>
<path d="M121.111 51.9709H76.9613C75.7674 51.9695 74.6227 51.4951 73.7785 50.6518C72.9342 49.8084 72.4593 48.6651 72.4579 47.4724V15.9151C72.4592 14.7224 72.9341 13.5789 73.7783 12.7355C74.6226 11.892 75.7673 11.4176 76.9613 11.4161H121.111C122.305 11.4175 123.45 11.8919 124.294 12.7353C125.138 13.5788 125.613 14.7223 125.615 15.9151V47.4724C125.613 48.6651 125.138 49.8086 124.294 50.6519C123.45 51.4953 122.305 51.9696 121.111 51.9709ZM76.9613 13.4407C76.3046 13.4415 75.6751 13.7025 75.2108 14.1664C74.7465 14.6303 74.4854 15.2592 74.4847 15.9151V47.4724C74.4854 48.1283 74.7466 48.7571 75.2109 49.2209C75.6752 49.6847 76.3047 49.9456 76.9613 49.9463H121.111C121.768 49.9456 122.397 49.6848 122.861 49.221C123.326 48.7572 123.587 48.1284 123.588 47.4724V15.9151C123.587 15.2591 123.326 14.6302 122.862 14.1664C122.397 13.7025 121.768 13.4415 121.111 13.4407H76.9613Z" fill="#E6E6E6"/>
<path d="M113.389 25.5374H84.684C84.4163 25.5358 84.1602 25.4284 83.9714 25.2387C83.7827 25.0491 83.6768 24.7925 83.6768 24.5251C83.6768 24.2577 83.7827 24.0012 83.9714 23.8115C84.1602 23.6219 84.4163 23.5145 84.684 23.5128H113.389C113.522 23.512 113.655 23.5376 113.778 23.5881C113.902 23.6386 114.015 23.713 114.109 23.8071C114.204 23.9012 114.279 24.0131 114.331 24.1363C114.382 24.2595 114.408 24.3917 114.408 24.5251C114.408 24.6586 114.382 24.7907 114.331 24.9139C114.279 25.0372 114.204 25.149 114.109 25.2431C114.015 25.3372 113.902 25.4116 113.778 25.4621C113.655 25.5126 113.522 25.5382 113.389 25.5374Z" fill="#F9A826"/>
<path d="M113.389 32.7061H84.684C84.4163 32.7045 84.1602 32.5971 83.9714 32.4074C83.7827 32.2178 83.6768 31.9612 83.6768 31.6938C83.6768 31.4264 83.7827 31.1699 83.9714 30.9802C84.1602 30.7906 84.4163 30.6832 84.684 30.6815H113.389C113.522 30.6807 113.655 30.7063 113.778 30.7568C113.902 30.8073 114.015 30.8817 114.109 30.9758C114.204 31.0699 114.279 31.1818 114.331 31.305C114.382 31.4282 114.408 31.5604 114.408 31.6938C114.408 31.8273 114.382 31.9594 114.331 32.0827C114.279 32.2059 114.204 32.3177 114.109 32.4118C114.015 32.5059 113.902 32.5803 113.778 32.6308C113.655 32.6813 113.522 32.7069 113.389 32.7061Z" fill="#F9A826"/>
<path d="M113.389 39.8742H84.684C84.4163 39.8726 84.1602 39.7652 83.9714 39.5755C83.7827 39.3859 83.6768 39.1293 83.6768 38.8619C83.6768 38.5945 83.7827 38.338 83.9714 38.1483C84.1602 37.9586 84.4163 37.8513 84.684 37.8496H113.389C113.522 37.8488 113.655 37.8744 113.778 37.9249C113.902 37.9754 114.015 38.0498 114.109 38.1439C114.204 38.238 114.279 38.3499 114.331 38.4731C114.382 38.5963 114.408 38.7284 114.408 38.8619C114.408 38.9954 114.382 39.1275 114.331 39.2507C114.279 39.374 114.204 39.4858 114.109 39.5799C114.015 39.674 113.902 39.7484 113.778 39.7989C113.655 39.8494 113.522 39.875 113.389 39.8742Z" fill="#F9A826"/>
<path d="M267.606 69.4578L225.204 57.1743C224.057 56.8408 223.09 56.0667 222.515 55.0219C221.939 53.977 221.802 52.7467 222.133 51.6009L230.932 21.2924C231.266 20.1472 232.041 19.1811 233.087 18.6059C234.133 18.0307 235.364 17.8935 236.512 18.2243L278.914 30.5078C280.061 30.8413 281.028 31.6154 281.604 32.6604C282.179 33.7054 282.317 34.9359 281.985 36.0818L273.186 66.3904C272.852 67.5355 272.077 68.5015 271.031 69.0766C269.985 69.6516 268.753 69.7887 267.606 69.4578ZM235.947 20.1688C235.316 19.9869 234.639 20.0624 234.063 20.3787C233.488 20.6951 233.062 21.2265 232.879 21.8563L224.08 52.1648C223.897 52.7949 223.973 53.4716 224.289 54.0462C224.606 54.6208 225.138 55.0465 225.768 55.2299L268.171 67.5133C268.802 67.6953 269.479 67.62 270.054 67.3037C270.63 66.9875 271.056 66.4562 271.24 65.8265L280.039 35.5179C280.221 34.8877 280.145 34.211 279.829 33.6363C279.512 33.0615 278.98 32.6358 278.35 32.4523L235.947 20.1688Z" fill="#E6E6E6"/>
<path d="M267.56 41.9218L239.991 33.9355C239.734 33.8603 239.516 33.6861 239.387 33.4511C239.258 33.216 239.227 32.9394 239.302 32.6819C239.377 32.4244 239.551 32.207 239.786 32.0775C240.021 31.948 240.298 31.9169 240.556 31.991L268.125 39.9774C268.383 40.0521 268.601 40.2263 268.73 40.4615C268.86 40.6967 268.89 40.9737 268.816 41.2316C268.741 41.4894 268.566 41.707 268.331 41.8364C268.095 41.9659 267.818 41.9966 267.56 41.9218H267.56Z" fill="#F9A826"/>
<path d="M265.561 48.8068L237.992 40.8205C237.865 40.7835 237.745 40.7216 237.641 40.6386C237.538 40.5555 237.451 40.4528 237.387 40.3363C237.323 40.2199 237.282 40.0919 237.267 39.9598C237.253 39.8277 237.264 39.694 237.301 39.5663C237.338 39.4386 237.4 39.3195 237.484 39.2157C237.567 39.1119 237.669 39.0255 237.786 38.9614C237.903 38.8973 238.031 38.8568 238.163 38.8421C238.295 38.8275 238.429 38.839 238.557 38.876L266.126 46.8623C266.383 46.9375 266.601 47.1117 266.73 47.3468C266.859 47.5818 266.89 47.8584 266.815 48.1159C266.74 48.3735 266.566 48.5908 266.331 48.7204C266.096 48.8499 265.819 48.881 265.561 48.8068Z" fill="#F9A826"/>
<path d="M263.563 55.6912L235.994 47.7049C235.736 47.6297 235.519 47.4555 235.39 47.2205C235.26 46.9855 235.23 46.7088 235.305 46.4513C235.379 46.1938 235.553 45.9764 235.788 45.8469C236.023 45.7174 236.3 45.6863 236.558 45.7605L264.127 53.7468C264.385 53.8215 264.603 53.9957 264.733 54.2309C264.862 54.4661 264.893 54.7431 264.818 55.001C264.743 55.2588 264.569 55.4764 264.333 55.6058C264.098 55.7353 263.821 55.766 263.563 55.6912Z" fill="#F9A826"/>
<path d="M544 386.094H99.2749V388H544V386.094Z" fill="#E6E6E6"/>
<path d="M357.491 383.115H285.172L287.623 351.281H355.039L357.491 383.115Z" fill="#E6E6E6"/>
<path d="M362.393 379.442H281.494V386.788H362.393V379.442Z" fill="#E6E6E6"/>
<path d="M459.84 146.191H183.435C181.485 146.191 179.614 146.965 178.235 148.342C176.855 149.72 176.081 151.589 176.081 153.537V321.894H467.194V153.537C467.194 152.572 467.004 151.617 466.635 150.726C466.265 149.834 465.723 149.025 465.04 148.342C464.357 147.66 463.547 147.119 462.654 146.75C461.762 146.381 460.806 146.191 459.84 146.191H459.84Z" fill="#3F3D56"/>
<path d="M176.081 321.894V349.444C176.081 350.408 176.271 351.364 176.64 352.255C177.01 353.146 177.552 353.956 178.235 354.638C178.918 355.321 179.728 355.862 180.621 356.231C181.513 356.6 182.469 356.79 183.435 356.79H459.84C461.79 356.79 463.661 356.016 465.04 354.638C466.42 353.261 467.194 351.392 467.194 349.444V321.894H176.081Z" fill="#E6E6E6"/>
<path d="M453.098 161.496H190.79V308.426H453.098V161.496Z" fill="#E6E6E6"/>
<path d="M321.944 346.383C326.006 346.383 329.298 343.093 329.298 339.036C329.298 334.979 326.006 331.69 321.944 331.69C317.882 331.69 314.589 334.979 314.589 339.036C314.589 343.093 317.882 346.383 321.944 346.383Z" fill="#3F3D56"/>
<path d="M198.968 167.702C199.739 167.702 200.364 167.078 200.364 166.308C200.364 165.538 199.739 164.913 198.968 164.913C198.198 164.913 197.573 165.538 197.573 166.308C197.573 167.078 198.198 167.702 198.968 167.702Z" fill="white"/>
<path d="M204.266 167.702C205.037 167.702 205.662 167.078 205.662 166.308C205.662 165.538 205.037 164.913 204.266 164.913C203.495 164.913 202.87 165.538 202.87 166.308C202.87 167.078 203.495 167.702 204.266 167.702Z" fill="white"/>
<path d="M209.564 167.702C210.335 167.702 210.959 167.078 210.959 166.308C210.959 165.538 210.335 164.913 209.564 164.913C208.793 164.913 208.168 165.538 208.168 166.308C208.168 167.078 208.793 167.702 209.564 167.702Z" fill="white"/>
<path d="M445.538 171.045H197.573V294.442H445.538V171.045Z" fill="white"/>
<path d="M214.056 189.814C213.823 189.815 213.601 189.907 213.436 190.071C213.272 190.235 213.179 190.458 213.179 190.69V234.952C213.179 235.184 213.272 235.407 213.436 235.571C213.601 235.735 213.823 235.828 214.056 235.828H265.227C265.459 235.828 265.682 235.735 265.846 235.571C266.011 235.407 266.103 235.184 266.103 234.952V190.69C266.103 190.458 266.011 190.235 265.846 190.071C265.682 189.907 265.459 189.815 265.227 189.814H214.056Z" fill="#E6E6E6"/>
<path d="M296.217 189.957C295.985 189.957 295.762 190.049 295.598 190.213C295.433 190.377 295.341 190.6 295.34 190.832V234.952C295.341 235.184 295.433 235.407 295.598 235.571C295.762 235.735 295.985 235.828 296.217 235.828H347.225C347.458 235.827 347.68 235.735 347.845 235.571C348.009 235.407 348.101 235.184 348.102 234.952V190.832C348.101 190.6 348.009 190.378 347.845 190.213C347.68 190.049 347.458 189.957 347.225 189.957H296.217Z" fill="#E6E6E6"/>
<path d="M377.517 189.494C377.285 189.495 377.062 189.587 376.898 189.751C376.733 189.915 376.641 190.138 376.641 190.37V234.952C376.641 235.184 376.733 235.407 376.898 235.571C377.062 235.735 377.285 235.828 377.517 235.828H429.056C429.288 235.828 429.511 235.735 429.675 235.571C429.839 235.407 429.932 235.184 429.932 234.952V190.37C429.932 190.138 429.839 189.915 429.675 189.751C429.511 189.587 429.288 189.495 429.056 189.494H377.517Z" fill="#E6E6E6"/>
<path d="M214.991 257.737C214.511 257.738 214.051 257.929 213.712 258.269C213.373 258.608 213.182 259.068 213.182 259.548C213.182 260.027 213.373 260.487 213.712 260.827C214.051 261.166 214.511 261.357 214.991 261.358H263.102C263.582 261.357 264.042 261.166 264.382 260.827C264.721 260.487 264.911 260.027 264.911 259.548C264.911 259.068 264.721 258.608 264.382 258.269C264.042 257.929 263.582 257.738 263.102 257.737H214.991Z" fill="#E6E6E6"/>
<path d="M214.991 266.349C214.511 266.35 214.051 266.541 213.712 266.88C213.373 267.22 213.182 267.68 213.182 268.159C213.182 268.639 213.373 269.099 213.712 269.438C214.051 269.778 214.511 269.969 214.991 269.97H236.653C237.133 269.969 237.593 269.778 237.932 269.438C238.272 269.099 238.462 268.639 238.462 268.159C238.462 267.68 238.272 267.22 237.932 266.88C237.593 266.541 237.133 266.35 236.653 266.349H214.991Z" fill="#F9A826"/>
<path d="M298.036 257.737C297.556 257.738 297.096 257.929 296.756 258.269C296.417 258.608 296.227 259.068 296.227 259.548C296.227 260.027 296.417 260.487 296.756 260.827C297.096 261.166 297.556 261.357 298.036 261.358H346.147C346.627 261.357 347.087 261.166 347.426 260.827C347.765 260.487 347.956 260.027 347.956 259.548C347.956 259.068 347.765 258.608 347.426 258.269C347.087 257.929 346.627 257.738 346.147 257.737H298.036Z" fill="#E6E6E6"/>
<path d="M298.036 266.349C297.556 266.35 297.095 266.541 296.756 266.88C296.417 267.22 296.227 267.68 296.227 268.159C296.227 268.639 296.417 269.099 296.756 269.438C297.095 269.778 297.556 269.969 298.036 269.97H319.698C320.178 269.969 320.638 269.778 320.977 269.438C321.316 269.099 321.507 268.639 321.507 268.159C321.507 267.68 321.316 267.22 320.977 266.88C320.638 266.541 320.178 266.35 319.698 266.349H298.036Z" fill="#F9A826"/>
<path d="M379.005 257.737C378.524 257.738 378.064 257.929 377.725 258.269C377.386 258.608 377.196 259.068 377.196 259.548C377.196 260.027 377.386 260.487 377.725 260.827C378.064 261.166 378.524 261.357 379.005 261.358H427.115C427.595 261.357 428.056 261.166 428.395 260.827C428.734 260.487 428.924 260.027 428.924 259.548C428.924 259.068 428.734 258.608 428.395 258.269C428.056 257.929 427.595 257.738 427.115 257.737H379.005Z" fill="#E6E6E6"/>
<path d="M214.991 248.844C214.511 248.845 214.051 249.036 213.712 249.375C213.373 249.715 213.182 250.175 213.182 250.654C213.182 251.134 213.373 251.594 213.712 251.933C214.051 252.272 214.511 252.464 214.991 252.465H263.102C263.582 252.464 264.042 252.272 264.382 251.933C264.721 251.594 264.911 251.134 264.911 250.654C264.911 250.175 264.721 249.715 264.382 249.375C264.042 249.036 263.582 248.845 263.102 248.844H214.991Z" fill="#E6E6E6"/>
<path d="M298.036 248.844C297.556 248.845 297.096 249.036 296.756 249.375C296.417 249.715 296.227 250.175 296.227 250.654C296.227 251.134 296.417 251.594 296.756 251.933C297.096 252.272 297.556 252.464 298.036 252.465H346.147C346.627 252.464 347.087 252.272 347.426 251.933C347.765 251.594 347.956 251.134 347.956 250.654C347.956 250.175 347.765 249.715 347.426 249.375C347.087 249.036 346.627 248.845 346.147 248.844H298.036Z" fill="#E6E6E6"/>
<path d="M379.005 248.844C378.524 248.845 378.064 249.036 377.725 249.375C377.386 249.715 377.196 250.175 377.196 250.654C377.196 251.134 377.386 251.594 377.725 251.933C378.064 252.272 378.524 252.464 379.005 252.465H427.115C427.595 252.464 428.056 252.272 428.395 251.933C428.734 251.594 428.924 251.134 428.924 250.654C428.924 250.175 428.734 249.715 428.395 249.375C428.056 249.036 427.595 248.845 427.115 248.844H379.005Z" fill="#E6E6E6"/>
<path d="M379.005 266.349C378.524 266.35 378.064 266.541 377.725 266.88C377.386 267.22 377.195 267.68 377.195 268.159C377.195 268.639 377.386 269.099 377.725 269.438C378.064 269.778 378.524 269.969 379.005 269.97H400.666C401.146 269.969 401.606 269.778 401.945 269.438C402.284 269.099 402.475 268.639 402.475 268.159C402.475 267.68 402.284 267.22 401.945 266.88C401.606 266.541 401.146 266.35 400.666 266.349H379.005Z" fill="#F9A826"/>
</svg>
