<svg width="371" height="409" viewBox="0 0 371 409" fill="none" xmlns="http://www.w3.org/2000/svg">
<g clip-path="url(#clip0_4_171)">
<path d="M156.12 189.752C138.691 189.752 121.653 184.58 107.162 174.892C92.6697 165.203 81.3747 151.432 74.7048 135.32C68.035 119.209 66.2898 101.48 69.6901 84.3755C73.0903 67.2713 81.4833 51.5602 93.8076 39.2288C106.132 26.8974 121.834 18.4996 138.928 15.0974C156.023 11.6951 173.741 13.4413 189.844 20.115C205.946 26.7887 219.709 38.0902 229.392 52.5904C239.075 67.0906 244.244 84.1382 244.244 101.577C244.217 124.955 234.924 147.367 218.404 163.897C201.883 180.427 179.484 189.725 156.12 189.752ZM156.12 14.7917C138.966 14.7917 122.196 19.8816 107.933 29.4177C93.6689 38.9539 82.5518 52.5079 75.9869 68.366C69.4221 84.224 67.7045 101.674 71.0512 118.508C74.3979 135.343 82.6587 150.807 94.7889 162.944C106.919 175.081 122.374 183.347 139.199 186.696C156.024 190.044 173.464 188.326 189.313 181.757C205.162 175.188 218.708 164.065 228.238 149.793C237.769 135.521 242.856 118.742 242.856 101.577C242.83 78.5684 233.684 56.5092 217.423 40.2394C201.163 23.9695 179.116 14.8177 156.12 14.7917Z" fill="#F2F2F2"/>
<path d="M162.845 120.871H219.35C219.534 120.871 219.711 120.798 219.841 120.668C219.971 120.538 220.044 120.361 220.044 120.177C220.044 119.993 219.971 119.816 219.841 119.686C219.711 119.556 219.534 119.483 219.35 119.483H162.845C162.661 119.483 162.484 119.556 162.354 119.686C162.224 119.816 162.151 119.993 162.151 120.177C162.151 120.361 162.224 120.538 162.354 120.668C162.484 120.798 162.661 120.871 162.845 120.871Z" fill="#3F3D56"/>
<path d="M233.429 118.789C228.712 118.794 224.19 120.671 220.855 124.008C217.52 127.345 215.644 131.869 215.639 136.588V212.074C215.644 216.794 217.52 221.318 220.855 224.655C224.19 227.992 228.712 229.869 233.429 229.874H350.504C355.221 229.869 359.743 227.992 363.078 224.655C366.413 221.318 368.289 216.794 368.294 212.074V136.588C368.289 131.869 366.413 127.345 363.078 124.008C359.743 120.671 355.221 118.794 350.504 118.789H233.429Z" fill="white"/>
<path d="M350.504 230.569H233.429C228.528 230.563 223.83 228.613 220.365 225.146C216.9 221.678 214.951 216.978 214.945 212.074V136.588C214.951 131.685 216.9 126.984 220.365 123.517C223.83 120.05 228.528 118.1 233.429 118.094H350.504C355.405 118.1 360.103 120.05 363.568 123.517C367.033 126.984 368.982 131.685 368.988 136.588V212.074C368.982 216.978 367.033 221.678 363.568 225.146C360.103 228.613 355.405 230.563 350.504 230.569ZM233.429 119.483C228.896 119.488 224.551 121.292 221.346 124.499C218.141 127.705 216.338 132.053 216.333 136.588V212.074C216.338 216.609 218.141 220.957 221.346 224.164C224.551 227.371 228.896 229.175 233.429 229.18H350.504C355.037 229.175 359.382 227.371 362.587 224.164C365.792 220.957 367.595 216.609 367.6 212.074V136.588C367.595 132.053 365.792 127.705 362.587 124.499C359.382 121.292 355.037 119.488 350.504 119.483H233.429Z" fill="#3F3D56"/>
<path d="M160.838 114.372C159.088 114.676 157.525 115.652 156.483 117.091C155.44 118.531 155.001 120.32 155.257 122.079C155.314 122.436 155.401 122.787 155.517 123.129L120.61 153.911L133.54 162.973L164.39 127.016C165.771 126.426 166.919 125.395 167.653 124.085C168.388 122.774 168.668 121.256 168.45 119.769C168.318 118.925 168.021 118.114 167.576 117.384C167.131 116.654 166.546 116.019 165.856 115.515C165.165 115.011 164.382 114.648 163.551 114.447C162.721 114.245 161.859 114.21 161.014 114.342C160.955 114.351 160.897 114.361 160.838 114.372Z" fill="#A0616A"/>
<path d="M147.597 149.205C147.597 149.205 139.721 158.28 130.132 168.555C129.465 169.263 128.799 169.978 128.112 170.7C122.284 176.879 116.004 183.295 110.557 188.273C104.749 193.598 99.885 197.305 97.5258 197.396C97.3294 197.408 97.1322 197.387 96.943 197.333C89.8861 195.209 95.7009 197.736 92.6825 202.047C89.6502 206.366 90.0249 200.7 83.2318 197.333C76.4525 193.966 80.0607 197.312 77.3546 202.631C76.515 204.297 69.1459 203.957 59.4315 202.707C58.3352 193.438 56.7392 185.44 56.7392 185.44C56.7193 179.881 57.2869 174.335 58.4323 168.895C75.3562 168.59 89.3519 168.416 90.0666 168.638C91.9123 169.201 95.8813 167.777 100.267 165.299C100.891 164.945 102.071 164.125 103.632 162.973C105.013 161.959 106.678 160.696 108.531 159.279C110.613 157.669 114.158 156.787 115.31 153.982C118.655 145.887 117.51 151.927 118.405 151.552C119.425 151.121 121.229 150.955 122.284 150.337C122.572 150.211 122.81 149.99 122.957 149.711C123.105 149.433 123.153 149.112 123.096 148.803C123.044 148.539 122.955 148.284 122.832 148.046C121.874 146.123 123.331 145.935 124.705 145.734C125.275 145.706 125.829 145.541 126.322 145.255C131.838 140.853 136.016 137.472 136.016 137.472L137.514 138.999L137.521 139.006L146.389 147.99L147.597 149.205Z" fill="#3F3D56"/>
<path d="M140.031 408.148H52.3396C48.5859 408.148 45.5319 404.29 45.5319 399.549V306.315C45.5319 301.574 48.586 297.717 52.3396 297.717H140.031C143.785 297.717 146.839 301.574 146.839 306.315V399.549C146.839 404.29 143.785 408.148 140.031 408.148Z" fill="#F2F2F2"/>
<path d="M1.75619e-05 407.957C-0.026035 408.204 0.0458215 408.452 0.200192 408.647C0.354562 408.842 0.579155 408.969 0.825786 409H370.174C370.409 408.945 370.619 408.812 370.769 408.622C370.918 408.433 371 408.199 371 407.957C371 407.715 370.918 407.481 370.769 407.292C370.619 407.102 370.409 406.969 370.174 406.914H0.825743C0.579123 406.945 0.354551 407.072 0.200192 407.267C0.0458319 407.462 -0.0260267 407.71 1.75619e-05 407.957Z" fill="#CCCCCC"/>
<path d="M200.925 395.218L209.766 395.217L213.972 361.094L200.923 361.095L200.925 395.218Z" fill="#A0616A"/>
<path d="M200.613 404.447L227.802 404.446V404.102C227.802 401.293 226.687 398.6 224.702 396.615C222.718 394.629 220.026 393.513 217.22 393.513H217.219L212.253 389.743L202.986 393.514L200.613 393.514L200.613 404.447Z" fill="#2F2E41"/>
<path d="M146.009 391.15L154.519 393.547L167.811 361.842L155.25 358.303L146.009 391.15Z" fill="#A0616A"/>
<path d="M143.209 399.949L169.381 407.321L169.474 406.99C170.234 404.287 169.891 401.392 168.518 398.943C167.146 396.493 164.857 394.689 162.156 393.928L162.155 393.928L158.396 388.952L148.455 390.069L146.17 389.425L143.209 399.949Z" fill="#2F2E41"/>
<path d="M123.352 245.843C123.352 245.843 120.521 245.561 127.779 248.074C135.634 250.803 147.555 250.449 158.969 254.545C162.494 255.808 166.068 257.1 169.614 258.391C170.328 258.648 171.043 258.912 171.758 259.169C176.372 260.856 180.91 262.543 185.198 264.154C185.802 264.383 186.399 264.612 186.989 264.834C187.002 264.841 187.016 264.841 187.023 264.848C201.005 270.166 212.003 274.721 213.821 276.54C215.764 278.484 216.569 291.62 216.791 307.852C217.193 337.936 215.604 378.662 215.604 378.662L199.25 378.6C199.25 378.6 199.146 378.239 198.944 377.565C198.583 376.323 197.91 374.011 197.015 370.991C193.296 358.375 185.809 333.374 181.673 321.925C180.508 318.69 179.606 316.538 179.127 316.052C176.351 313.205 179.127 311.948 181.902 310.143C184.678 308.338 181.902 307.783 179.862 305.422C177.822 303.062 180.626 297.743 180.626 297.743C180.626 297.743 178.78 297.695 175.838 297.618C171.494 297.507 164.736 297.341 157.97 297.174C157.963 297.181 157.963 297.181 157.963 297.174C155.417 297.112 152.87 297.049 150.456 296.994C148.582 296.945 146.785 296.903 145.12 296.862C140.131 296.751 136.356 296.674 135.412 296.674C132.331 296.674 134.725 296.674 132.866 294.237C132.58 293.873 132.272 293.528 131.943 293.203C131.476 292.683 130.966 292.204 130.416 291.773C130.028 291.592 130.555 292.71 130.263 294.161C130.104 294.947 129.732 295.675 129.188 296.265C126.433 299.326 117.982 296.022 117.982 296.022C104.076 302.978 92.6687 302.478 83.8841 299.222C77.574 296.789 71.9138 292.925 67.3488 287.933C65.542 286.032 63.9202 283.963 62.5055 281.754L61.3606 281.539C61.3606 281.539 59.8201 229.895 61.5964 226.403C64.365 220.96 105.311 225.014 105.311 225.014L123.352 245.843Z" fill="#2F2E41"/>
<path d="M199.621 36.8628H256.126C256.31 36.8628 256.487 36.7897 256.617 36.6595C256.747 36.5293 256.82 36.3527 256.82 36.1685C256.82 35.9844 256.747 35.8078 256.617 35.6776C256.487 35.5474 256.31 35.4742 256.126 35.4742H199.621C199.437 35.4742 199.26 35.5474 199.13 35.6776C199 35.8078 198.927 35.9844 198.927 36.1685C198.927 36.3527 199 36.5293 199.13 36.6595C199.26 36.7897 199.437 36.8628 199.621 36.8628Z" fill="#3F3D56"/>
<path d="M276.123 92.0774C264.666 76.83 258.045 59.7796 257.828 40.3408C257.458 39.2932 257.52 38.1419 257.998 37.1395C258.476 36.1371 259.332 35.3653 260.378 34.9936L299.428 21.1687C300.475 20.7994 301.626 20.8607 302.628 21.3391C303.63 21.8176 304.401 22.6742 304.772 23.7209L323.068 75.4575C323.437 76.5051 323.376 77.6564 322.897 78.6588C322.419 79.6612 321.563 80.433 320.517 80.8047L281.467 94.6296C280.42 94.9989 279.269 94.9376 278.267 94.4592C277.266 93.9807 276.494 93.1241 276.123 92.0774Z" fill="#E6E6E6"/>
<path d="M273.592 75.3904C266.702 68.4195 263.752 55.9866 261.83 42.1294C261.485 41.1483 261.542 40.0701 261.99 39.1313C262.438 38.1925 263.239 37.4697 264.219 37.1216L297.78 25.2403C298.76 24.8943 299.838 24.9517 300.776 25.3998C301.714 25.8479 302.437 26.6501 302.785 27.6304L319.065 73.6689C319.411 74.65 319.353 75.7283 318.905 76.6671C318.457 77.6059 317.656 78.3287 316.676 78.6767L295.886 86.037C291.518 87.5777 286.718 87.3221 282.539 85.3262C278.36 83.3302 275.142 79.757 273.592 75.3904Z" fill="white"/>
<path d="M303.234 52.4315L277.091 61.7684C276.885 61.842 276.667 61.8742 276.448 61.8633C276.23 61.8524 276.016 61.7986 275.818 61.7049C275.62 61.6111 275.443 61.4794 275.296 61.3171C275.15 61.1549 275.036 60.9653 274.963 60.7592C274.889 60.5531 274.857 60.3345 274.868 60.1159C274.879 59.8974 274.933 59.6831 275.026 59.4853C275.12 59.2876 275.252 59.1102 275.414 58.9634C275.576 58.8165 275.765 58.7031 275.971 58.6295L302.114 49.2925C302.32 49.219 302.538 49.1867 302.757 49.1976C302.975 49.2085 303.189 49.2624 303.387 49.3561C303.585 49.4498 303.762 49.5816 303.909 49.7438C304.056 49.9061 304.169 50.0957 304.242 50.3018C304.316 50.5079 304.348 50.7265 304.337 50.945C304.326 51.1636 304.273 51.3779 304.179 51.5756C304.085 51.7734 303.954 51.9508 303.791 52.0976C303.629 52.2444 303.44 52.3579 303.234 52.4315Z" fill="#F9A826"/>
<path d="M279.772 51.1072L274.021 53.1614C273.605 53.3094 273.147 53.2862 272.748 53.0969C272.35 52.9075 272.042 52.5675 271.894 52.1516C271.746 51.7356 271.768 51.2777 271.957 50.8785C272.146 50.4793 272.485 50.1714 272.901 50.0225L278.652 47.9683C279.068 47.8197 279.526 47.8426 279.925 48.0319C280.325 48.2211 280.632 48.5613 280.781 48.9776C280.929 49.3938 280.906 49.852 280.717 50.2514C280.528 50.6508 280.188 50.9587 279.772 51.1072Z" fill="#F9A826"/>
<path d="M308.157 66.231L282.014 75.5679C281.808 75.6415 281.59 75.6738 281.371 75.6629C281.153 75.652 280.939 75.5981 280.741 75.5044C280.543 75.4107 280.366 75.2789 280.219 75.1167C280.073 74.9544 279.959 74.7648 279.886 74.5587C279.812 74.3526 279.78 74.134 279.791 73.9155C279.802 73.6969 279.855 73.4826 279.949 73.2848C280.043 73.0871 280.175 72.9097 280.337 72.7629C280.499 72.616 280.688 72.5026 280.894 72.429L307.037 63.0921C307.243 63.0182 307.461 62.9858 307.68 62.9965C307.899 63.0073 308.113 63.061 308.311 63.1547C308.509 63.2484 308.686 63.3801 308.833 63.5425C308.98 63.7048 309.093 63.8945 309.167 64.1007C309.24 64.307 309.273 64.5257 309.262 64.7444C309.251 64.9631 309.197 65.1775 309.103 65.3754C309.009 65.5732 308.877 65.7506 308.715 65.8974C308.553 66.0442 308.363 66.1576 308.157 66.231H308.157Z" fill="#F9A826"/>
<path d="M305.695 59.3313L279.553 68.6682C279.137 68.8168 278.679 68.794 278.28 68.6047C277.88 68.4154 277.573 68.0752 277.424 67.659C277.276 67.2428 277.299 66.7845 277.488 66.3851C277.677 65.9857 278.017 65.6779 278.433 65.5293L304.575 56.1924C304.991 56.0443 305.449 56.0675 305.848 56.2568C306.247 56.4462 306.554 56.7862 306.702 57.2022C306.851 57.6181 306.828 58.076 306.639 58.4753C306.45 58.8745 306.111 59.1824 305.695 59.3313Z" fill="#F9A826"/>
<path d="M260.048 45.8885C263.88 45.8885 266.987 42.7801 266.987 38.9457C266.987 35.1112 263.88 32.0028 260.048 32.0028C256.216 32.0028 253.109 35.1112 253.109 38.9457C253.109 42.7801 256.216 45.8885 260.048 45.8885Z" fill="#F9A826"/>
<path d="M134.513 23.6714H78.0079C77.8239 23.6714 77.6474 23.5982 77.5172 23.468C77.3871 23.3378 77.314 23.1613 77.314 22.9771C77.314 22.793 77.3871 22.6164 77.5172 22.4862C77.6474 22.356 77.8239 22.2828 78.0079 22.2828H134.513C134.697 22.2828 134.874 22.356 135.004 22.4862C135.134 22.6164 135.207 22.793 135.207 22.9771C135.207 23.1613 135.134 23.3378 135.004 23.468C134.874 23.5982 134.697 23.6714 134.513 23.6714Z" fill="#3F3D56"/>
<path d="M4.93732 48.2988C9.84474 29.8658 19.1557 14.1235 34.3001 1.94564C34.8954 1.00813 35.8382 0.345201 36.9214 0.102281C38.0047 -0.140639 39.14 0.0562917 40.0783 0.649872L75.0651 22.8381C76.002 23.4338 76.6646 24.377 76.9074 25.4609C77.1502 26.5448 76.9533 27.6807 76.3601 28.6196L46.9973 74.9727C46.402 75.9103 45.4592 76.5732 44.376 76.8161C43.2927 77.0591 42.1574 76.8621 41.2191 76.2686L6.23234 54.0804C5.29537 53.4847 4.63281 52.5414 4.39003 51.4575C4.14725 50.3736 4.34408 49.2377 4.93732 48.2988Z" fill="#E6E6E6"/>
<path d="M16.4898 36.0002C17.7126 26.2724 25.6627 16.2719 35.3669 6.20018C35.9244 5.32215 36.8073 4.70127 37.8218 4.47376C38.8363 4.24626 39.8996 4.43071 40.7784 4.98664L70.8465 24.0555C71.724 24.6134 72.3446 25.4968 72.572 26.5119C72.7994 27.527 72.6151 28.5909 72.0595 29.4702L45.9306 70.7182C45.373 71.5962 44.4901 72.2171 43.4756 72.4446C42.4611 72.672 41.3978 72.4876 40.519 71.9316L21.8924 60.1189C17.9836 57.6338 15.2197 53.6989 14.2068 49.1773C13.194 44.6557 14.015 39.9168 16.4898 36.0002Z" fill="white"/>
<path d="M52.844 45.143L29.3575 30.3393C28.9842 30.1035 28.7198 29.7291 28.6223 29.2984C28.5248 28.8676 28.6022 28.4157 28.8375 28.042C29.0727 27.6683 29.4467 27.4034 29.8771 27.3053C30.3075 27.2073 30.7592 27.2843 31.1329 27.5193L54.6194 42.323C54.8047 42.4395 54.9652 42.5915 55.0918 42.7701C55.2184 42.9487 55.3085 43.1506 55.3571 43.3641C55.4057 43.5777 55.4117 43.7987 55.3748 44.0145C55.338 44.2304 55.259 44.4369 55.1423 44.6221C55.0257 44.8074 54.8737 44.9679 54.695 45.0944C54.5163 45.2208 54.3145 45.3108 54.1011 45.3592C53.8876 45.4076 53.6667 45.4134 53.451 45.3763C53.2353 45.3392 53.029 45.2599 52.844 45.143Z" fill="#F9A826"/>
<path d="M39.3928 25.8636L34.2258 22.6068C34.0405 22.4903 33.8799 22.3383 33.7533 22.1597C33.6268 21.981 33.5366 21.7792 33.4881 21.5657C33.4395 21.3521 33.4335 21.1311 33.4703 20.9153C33.5072 20.6994 33.5862 20.4929 33.7028 20.3076C33.8195 20.1224 33.9715 19.9619 34.1502 19.8354C34.3288 19.709 34.5307 19.619 34.7441 19.5706C34.9576 19.5222 35.1785 19.5164 35.3941 19.5535C35.6098 19.5906 35.8161 19.6699 36.0012 19.7868L41.1682 23.0436C41.3535 23.1601 41.514 23.3121 41.6406 23.4907C41.7672 23.6693 41.8574 23.8712 41.9059 24.0847C41.9545 24.2982 41.9605 24.5193 41.9237 24.7351C41.8868 24.951 41.8078 25.1574 41.6911 25.3427C41.5745 25.528 41.4225 25.6885 41.2438 25.8149C41.0651 25.9414 40.8633 26.0314 40.6499 26.0798C40.4364 26.1282 40.2155 26.134 39.9998 26.0969C39.7841 26.0598 39.5778 25.9805 39.3928 25.8636Z" fill="#F9A826"/>
<path d="M45.0388 57.5405L21.5523 42.7368C21.367 42.6203 21.2065 42.4683 21.0799 42.2897C20.9533 42.1111 20.8631 41.9092 20.8146 41.6957C20.766 41.4821 20.76 41.2611 20.7968 41.0453C20.8337 40.8294 20.9127 40.6229 21.0294 40.4376C21.146 40.2524 21.298 40.0919 21.4767 39.9654C21.6553 39.839 21.8572 39.749 22.0706 39.7006C22.2841 39.6522 22.505 39.6464 22.7207 39.6835C22.9364 39.7206 23.1426 39.7999 23.3277 39.9168L46.8142 54.7205C47.1874 54.9563 47.4518 55.3307 47.5494 55.7614C47.6469 56.1922 47.5695 56.6441 47.3342 57.0178C47.0989 57.3915 46.725 57.6564 46.2946 57.7545C45.8642 57.8525 45.4125 57.7755 45.0388 57.5405Z" fill="#F9A826"/>
<path d="M48.9414 51.3417L25.4549 36.5381C25.2696 36.4215 25.1091 36.2696 24.9825 36.091C24.8559 35.9123 24.7658 35.7105 24.7172 35.4969C24.6686 35.2834 24.6626 35.0624 24.6994 34.8465C24.7363 34.6307 24.8153 34.4242 24.9319 34.2389C25.0486 34.0536 25.2006 33.8932 25.3793 33.7667C25.558 33.6402 25.7598 33.5502 25.9732 33.5019C26.1867 33.4535 26.4076 33.4477 26.6233 33.4848C26.839 33.5219 27.0453 33.6011 27.2303 33.7181L50.7168 48.5218C51.0906 48.7573 51.3555 49.1318 51.4533 49.5628C51.5511 49.9938 51.4737 50.446 51.2383 50.82C51.1217 51.0052 50.9699 51.1655 50.7913 51.292C50.6128 51.4184 50.4111 51.5084 50.1979 51.5569C49.7671 51.6547 49.3151 51.5773 48.9414 51.3418L48.9414 51.3417Z" fill="#F9A826"/>
<path d="M74.0864 32.6971C77.9186 32.6971 81.0252 29.5887 81.0252 25.7543C81.0252 21.9198 77.9186 18.8114 74.0864 18.8114C70.2542 18.8114 67.1475 21.9198 67.1475 25.7543C67.1475 29.5887 70.2542 32.6971 74.0864 32.6971Z" fill="#F9A826"/>
<path d="M223.272 129.897C227.104 129.897 230.211 126.789 230.211 122.954C230.211 119.12 227.104 116.011 223.272 116.011C219.44 116.011 216.333 119.12 216.333 122.954C216.333 126.789 219.44 129.897 223.272 129.897Z" fill="#F9A826"/>
<path d="M190.79 296.444C187.896 312.218 175.635 349.189 168.225 370.83C164.846 380.717 164.568 376.995 164.568 376.995L160.717 375.78L154.222 373.725L151.849 372.975L148.976 372.066C148.976 372.066 147.568 346.919 147.117 328.055C146.964 321.973 146.7 317.627 146.263 316.766C144.459 313.225 147.478 312.85 150.663 311.955C153.854 311.059 151.363 309.712 150.121 306.838C149.282 304.922 150.933 302.373 152.106 300.915C152.429 300.506 152.774 300.114 153.14 299.742C153.14 299.742 145.021 296.979 135.841 293.862C135.834 293.868 135.834 293.862 135.834 293.862C134.911 293.549 133.982 293.237 133.052 292.917C136.285 291.751 138.436 290.848 138.922 290.369C141.767 287.592 143.023 290.369 144.827 293.146C146.631 295.924 147.186 293.146 149.545 291.105C151.905 289.064 157.22 291.869 157.22 291.869C157.22 291.869 157.268 290.022 157.345 287.078C157.456 282.732 157.622 275.97 157.789 269.201C157.782 269.194 157.782 269.194 157.789 269.194C157.851 266.646 157.914 264.098 157.969 261.681C162.861 265.431 167.607 269.11 171.909 272.512C171.916 272.519 171.93 272.526 171.93 272.54C182.276 280.719 190.041 287.287 191.13 289.37C191.623 290.314 191.456 292.82 190.79 296.444Z" fill="#2F2E41"/>
<path d="M124.046 237.511L121.493 239.171L114.956 243.42L106.088 249.175L58.8209 279.863C58.8209 279.863 52.9784 267.949 58.3282 257.59C59.0167 256.28 59.5768 254.905 60.0005 253.487C62.1654 246.058 58.0021 242.837 58.0021 242.837C58.0021 242.837 51.0632 236.081 57.7176 229.853C59.0845 228.576 59.8478 225.958 60.1948 222.598C60.7776 217.072 60.2433 209.546 59.4315 202.707C58.3351 193.438 56.7392 185.44 56.7392 185.44C56.7193 179.881 57.2869 174.335 58.4323 168.895C59.7021 163.035 61.7421 157.467 64.7605 152.843C65.8675 151.128 67.1437 149.527 68.57 148.067C70.5658 146.02 72.9019 144.335 75.4741 143.089C79.3321 141.228 85.9449 142.346 91.7735 143.158C92.9462 143.318 94.0841 143.47 95.1597 143.581C96.2262 143.705 97.2987 143.773 98.3724 143.783L100.787 152.6L101.703 155.94L102.161 157.613L103.202 161.418L103.632 162.973L110.557 188.273L116.212 208.907L119.335 220.307L124.005 237.352L124.046 237.511Z" fill="#3F3D56"/>
<path d="M85.3607 137.712C96.9935 137.712 106.424 128.276 106.424 116.636C106.424 104.997 96.9935 95.5612 85.3607 95.5612C73.7279 95.5612 64.2976 104.997 64.2976 116.636C64.2976 128.276 73.7279 137.712 85.3607 137.712Z" fill="#A0616A"/>
<path d="M81.4152 134.057L79.6995 139.546C75.8951 137.667 72.0397 135.754 68.8719 132.93C65.7041 130.106 63.254 126.209 63.104 121.967C63.0265 119.775 63.5568 117.565 63.193 115.403C62.7818 112.96 61.2749 110.842 60.585 108.463C59.9397 105.971 60.1826 103.332 61.272 101C62.3613 98.6673 64.229 96.7878 66.5536 95.6845C70.0451 94.1492 74.0376 94.5802 77.8333 94.2091C81.629 93.8381 85.8631 92.12 86.9314 88.4569C87.3309 87.0872 87.2851 85.4724 88.5079 84.5756C89.1224 84.1646 89.8672 83.9958 90.5987 84.1016C91.3302 84.2074 91.9967 84.5804 92.4697 85.1487C94.2572 87.1794 93.8172 89.8533 93.3491 92.2844C95.8106 91.9629 98.1779 91.1302 100.299 89.8399C102.42 88.5495 104.249 86.8299 105.667 84.7913C106.333 85.4152 106.868 86.165 107.243 86.9973C107.617 87.8297 107.823 88.728 107.849 89.6405C107.874 90.5529 107.719 91.4613 107.391 92.3132C107.063 93.1652 106.57 93.9437 105.94 94.6037C107.137 94.6042 108.299 94.2011 109.239 93.4595C110.179 92.7179 110.841 91.6811 111.12 90.5164C112.573 92.5252 114.065 94.6202 114.533 97.0558C115 99.4914 114.133 102.372 111.9 103.45C110.761 103.9 109.538 104.101 108.314 104.037L98.9557 104.215C96.1727 104.268 93.5193 105.402 91.557 107.378C89.5947 109.353 88.4774 112.015 88.4413 114.799C85.7185 114.538 82.9142 114.282 80.3396 115.429C79.1402 115.934 78.1295 116.803 77.4498 117.914C75.7483 120.838 77.4364 123.878 78.9326 126.538C80.2115 128.811 81.424 131.55 80.3627 133.933" fill="#2F2E41"/>
<path d="M177.567 348.044L138.517 334.219C137.47 333.847 136.614 333.076 136.136 332.073C135.658 331.071 135.597 329.919 135.966 328.872L154.261 277.135C154.633 276.089 155.404 275.232 156.406 274.754C157.408 274.275 158.558 274.214 159.605 274.583L198.655 288.408C199.701 288.78 200.558 289.551 201.036 290.554C201.514 291.556 201.575 292.708 201.206 293.755C200.989 313.194 194.367 330.244 182.911 345.492C182.539 346.539 181.768 347.395 180.766 347.874C179.764 348.352 178.614 348.413 177.567 348.044Z" fill="#E6E6E6"/>
<path d="M163.148 339.451L142.358 332.091C141.378 331.743 140.576 331.02 140.128 330.081C139.68 329.142 139.623 328.064 139.969 327.083L156.249 281.045C156.597 280.064 157.319 279.262 158.258 278.814C159.196 278.366 160.274 278.309 161.254 278.654L194.814 290.536C195.794 290.884 196.596 291.607 197.044 292.545C197.491 293.484 197.549 294.563 197.203 295.544C195.281 309.401 192.332 321.834 185.441 328.805C183.892 333.171 180.674 336.744 176.495 338.74C172.315 340.736 167.515 340.992 163.148 339.451Z" fill="white"/>
<path d="M154.791 303.716C154.94 303.3 155.248 302.96 155.647 302.771C156.046 302.582 156.504 302.559 156.92 302.707L183.062 312.044C183.268 312.117 183.458 312.231 183.62 312.377C183.783 312.524 183.915 312.702 184.009 312.899C184.102 313.097 184.156 313.312 184.167 313.53C184.178 313.749 184.146 313.968 184.072 314.174C183.999 314.38 183.885 314.57 183.738 314.732C183.592 314.895 183.414 315.026 183.216 315.12C183.019 315.214 182.804 315.268 182.586 315.278C182.367 315.289 182.148 315.257 181.942 315.183L155.8 305.846C155.384 305.697 155.044 305.389 154.855 304.99C154.666 304.59 154.643 304.132 154.791 303.716Z" fill="#F9A826"/>
<path d="M178.253 302.392C178.402 301.976 178.709 301.636 179.108 301.447C179.508 301.258 179.965 301.235 180.381 301.383L186.133 303.437C186.339 303.51 186.528 303.624 186.69 303.771C186.852 303.917 186.984 304.095 187.078 304.293C187.171 304.49 187.225 304.705 187.236 304.923C187.247 305.142 187.215 305.36 187.141 305.566C187.068 305.772 186.954 305.962 186.808 306.124C186.661 306.287 186.484 306.418 186.286 306.512C186.088 306.606 185.874 306.66 185.656 306.671C185.437 306.681 185.219 306.649 185.013 306.576L179.262 304.521C178.846 304.372 178.506 304.065 178.317 303.665C178.128 303.266 178.105 302.808 178.253 302.392Z" fill="#F9A826"/>
<path d="M149.868 317.516C150.017 317.1 150.325 316.76 150.724 316.571C151.123 316.381 151.581 316.358 151.997 316.506L178.139 325.843C178.345 325.917 178.535 326.03 178.698 326.177C178.86 326.324 178.992 326.501 179.086 326.699C179.179 326.897 179.233 327.111 179.244 327.33C179.255 327.549 179.223 327.767 179.149 327.974C179.076 328.18 178.962 328.369 178.816 328.532C178.669 328.694 178.491 328.826 178.293 328.92C178.096 329.013 177.881 329.067 177.663 329.078C177.444 329.089 177.225 329.056 177.019 328.982L150.877 319.645C150.461 319.496 150.122 319.188 149.932 318.789C149.743 318.39 149.72 317.932 149.868 317.516Z" fill="#F9A826"/>
<path d="M152.33 310.616C152.479 310.2 152.786 309.86 153.185 309.671C153.584 309.482 154.042 309.459 154.458 309.607L180.601 318.944C180.807 319.017 180.997 319.13 181.159 319.277C181.321 319.424 181.453 319.601 181.547 319.799C181.641 319.997 181.695 320.212 181.706 320.43C181.717 320.649 181.685 320.868 181.611 321.074C181.537 321.28 181.424 321.47 181.277 321.632C181.13 321.795 180.953 321.926 180.755 322.02C180.557 322.114 180.343 322.167 180.124 322.178C179.906 322.189 179.687 322.156 179.481 322.083L153.338 312.746C152.923 312.597 152.583 312.289 152.394 311.889C152.205 311.49 152.182 311.032 152.33 310.616Z" fill="#F9A826"/>
<path d="M165.729 275.336C165.229 273.63 164.084 272.187 162.536 271.314C160.989 270.44 159.162 270.206 157.445 270.659C157.097 270.757 156.758 270.883 156.431 271.037L121.915 239.817L114.38 253.696L153.576 280.297C154.318 281.604 155.471 282.628 156.856 283.21C158.241 283.792 159.779 283.899 161.231 283.514C162.055 283.287 162.826 282.9 163.501 282.375C164.175 281.85 164.74 281.197 165.162 280.454C165.585 279.71 165.857 278.891 165.962 278.042C166.068 277.193 166.006 276.332 165.779 275.508C165.763 275.45 165.747 275.393 165.729 275.336Z" fill="#A0616A"/>
<path d="M139.978 253.272L138.632 254.938L130.707 264.776L129.639 266.109C129.639 266.109 118.322 258.333 106.088 249.175C91.4058 238.171 75.4048 225.167 76.1195 221.203C77.4309 213.947 75.5783 220.009 70.95 217.495C66.3288 214.975 71.9909 214.704 74.5652 207.574C77.1464 200.451 74.2321 204.415 68.6463 202.332C64.9202 200.943 66.87 169.09 68.57 148.067C70.5658 146.02 72.9019 144.335 75.4742 143.089C80.1024 140.853 88.7135 142.915 95.1597 143.582C98.8095 170.499 104.076 209.872 103.84 211.115C103.479 213.01 105.353 216.794 108.309 220.876C109.697 222.807 116.851 230.145 124.005 237.352C131.984 245.392 139.978 253.272 139.978 253.272Z" fill="#3F3D56"/>
<path d="M310.105 154.178H236.639C236.43 154.178 236.224 154.138 236.031 154.058C235.839 153.979 235.664 153.862 235.516 153.715C235.369 153.567 235.252 153.392 235.172 153.2C235.092 153.007 235.051 152.801 235.051 152.593C235.051 152.384 235.092 152.178 235.172 151.985C235.252 151.793 235.369 151.618 235.516 151.47C235.664 151.323 235.839 151.207 236.031 151.127C236.224 151.048 236.43 151.007 236.639 151.007H310.105C310.524 151.008 310.927 151.176 311.223 151.473C311.519 151.77 311.686 152.173 311.686 152.593C311.686 153.012 311.519 153.415 311.223 153.712C310.927 154.009 310.524 154.177 310.105 154.178Z" fill="#F9A826"/>
<path d="M347.295 168.67H236.639C236.43 168.671 236.224 168.63 236.031 168.551C235.839 168.471 235.664 168.354 235.516 168.207C235.369 168.06 235.252 167.885 235.172 167.693C235.092 167.5 235.051 167.294 235.051 167.085C235.051 166.877 235.092 166.67 235.172 166.478C235.252 166.285 235.369 166.11 235.516 165.963C235.664 165.816 235.839 165.699 236.031 165.62C236.224 165.54 236.43 165.499 236.639 165.5H347.295C347.714 165.501 348.117 165.668 348.413 165.965C348.709 166.263 348.876 166.665 348.876 167.085C348.876 167.505 348.709 167.908 348.413 168.205C348.117 168.502 347.714 168.669 347.295 168.67Z" fill="#F2F2F2"/>
<path d="M347.297 179.99H236.636C236.216 179.99 235.812 180.157 235.515 180.455C235.218 180.752 235.051 181.156 235.051 181.577C235.051 181.997 235.218 182.401 235.515 182.698C235.812 182.996 236.216 183.163 236.636 183.163H347.297C347.717 183.163 348.121 182.996 348.418 182.698C348.715 182.401 348.883 181.997 348.883 181.577C348.883 181.156 348.715 180.752 348.418 180.455C348.121 180.157 347.717 179.99 347.297 179.99Z" fill="#F2F2F2"/>
<path d="M347.295 197.656H236.639C236.43 197.656 236.224 197.615 236.031 197.536C235.839 197.456 235.664 197.34 235.516 197.192C235.369 197.045 235.252 196.87 235.172 196.678C235.092 196.485 235.051 196.279 235.051 196.07C235.051 195.862 235.092 195.655 235.172 195.463C235.252 195.27 235.369 195.095 235.516 194.948C235.664 194.801 235.839 194.684 236.031 194.605C236.224 194.525 236.43 194.485 236.639 194.485H347.295C347.714 194.486 348.117 194.653 348.413 194.951C348.709 195.248 348.876 195.65 348.876 196.07C348.876 196.49 348.709 196.893 348.413 197.19C348.117 197.487 347.714 197.655 347.295 197.656Z" fill="#F2F2F2"/>
</g>
<defs>
<clipPath id="clip0_4_171">
<rect width="371" height="409" fill="white"/>
</clipPath>
</defs>
</svg>
