<svg width="412" height="535" viewBox="0 0 412 535" fill="none" xmlns="http://www.w3.org/2000/svg">
<path d="M121.512 200.789L6.51144 175.969L5.01691 175.647C4.25583 175.481 3.46355 175.534 2.73118 175.799C1.99881 176.064 1.35608 176.531 0.876919 177.145C0.397757 177.76 0.101603 178.497 0.022537 179.272C-0.0565292 180.047 0.084709 180.829 0.429976 181.527L46.0898 274.3C46.3853 274.896 46.8196 275.412 47.3561 275.806C47.8927 276.199 48.5158 276.457 49.1729 276.559C49.8322 276.661 50.5064 276.602 51.1375 276.385C51.7686 276.169 52.3375 275.802 52.7951 275.316L84.5093 241.859C84.7349 241.615 85.0086 241.42 85.313 241.287C85.6175 241.154 85.9462 241.085 86.2784 241.086C86.73 241.079 87.1748 241.196 87.5652 241.423C87.9556 241.65 88.277 241.979 88.4949 242.375L94.9908 254.397C95.4055 255.198 96.0763 255.838 96.8964 256.214C97.7165 256.59 98.6387 256.681 99.5163 256.472L99.5486 256.464C100.437 256.276 101.236 255.795 101.818 255.097C102.399 254.399 102.73 253.527 102.756 252.618L104.057 224.868C104.072 224.522 104.159 224.183 104.311 223.871C104.474 223.563 104.695 223.289 104.963 223.066L123.259 208.039C123.86 207.545 124.311 206.892 124.558 206.154C124.805 205.416 124.839 204.623 124.657 203.866C124.475 203.109 124.083 202.419 123.527 201.875C122.97 201.331 122.272 200.954 121.512 200.789H121.512ZM122.214 206.762L103.918 221.788C103.68 221.981 103.464 222.199 103.274 222.439L6.3036 178.439C6.21807 178.399 6.12885 178.368 6.03721 178.345C5.66318 178.249 5.26722 178.286 4.91781 178.451C4.5684 178.615 4.2875 178.897 4.12371 179.247C3.95991 179.597 3.92352 179.993 4.02082 180.367C4.11812 180.741 4.34299 181.07 4.65655 181.295L84.3879 239.894C83.9833 240.104 83.618 240.383 83.3081 240.718L51.5942 274.175C51.319 274.465 50.978 274.684 50.6001 274.813C50.2222 274.943 49.8186 274.979 49.4237 274.92C49.0287 274.86 48.654 274.705 48.3314 274.47C48.0088 274.234 47.7478 273.924 47.5707 273.565L1.91093 180.793C1.7068 180.374 1.62445 179.905 1.67327 179.442C1.72209 178.978 1.9001 178.537 2.18703 178.17C2.47396 177.803 2.85828 177.523 3.29618 177.364C3.73409 177.204 4.20798 177.171 4.66387 177.268L6.19389 177.598L121.158 202.41C121.615 202.509 122.034 202.734 122.369 203.06C122.703 203.387 122.939 203.801 123.049 204.255C123.159 204.709 123.139 205.185 122.992 205.628C122.844 206.072 122.575 206.464 122.214 206.762V206.762Z" fill="#F9A826"/>
<path d="M146.025 531.74C135.71 528.952 123.156 517.358 125.844 501.422C127.176 493.519 132.292 488.403 137.597 485.094C144.935 480.519 153.291 478.794 161.344 478.359C170.633 477.856 179.912 479.123 189.131 480.463C198.232 481.786 207.335 482.97 216.477 483.693C252.25 486.501 288.242 483.827 323.208 475.764C331.838 473.771 340.417 471.434 348.943 468.751C357.023 466.372 364.923 463.418 372.582 459.911C382.72 455.042 399.205 445.566 397.861 428.017C397.148 418.713 391.672 411.281 386.147 406.103C379.468 399.843 371.739 395.724 364.168 391.724C328.956 373.119 293.676 354.735 258.43 336.242C250.203 331.926 241.923 327.725 233.939 322.667C226.465 317.932 219.025 312.431 213.01 304.825C207.756 298.182 203.062 289.264 203.227 279.295C203.365 271.027 207.125 264.011 211.731 258.768C223.133 245.786 239.263 240.523 253.841 237.766C271.953 234.34 290.327 234.358 308.45 231.05C323.084 228.38 338.72 223.224 350.621 211.143C355.656 206.228 359.216 200.004 360.902 193.172C362.421 186.016 361.683 178.564 358.788 171.847C355.564 164.142 350.421 158.005 345.014 152.979C338.802 147.287 331.757 142.578 324.123 139.015C308.049 131.352 291.147 127.361 274.682 121.48C266.607 118.596 258.451 115.433 250.953 110.479C244.601 106.282 237.681 100.625 234.147 92.2114C226.855 74.8532 244.251 64.5079 254.108 60.5892C260.807 58.0469 267.708 56.0704 274.738 54.6804C276.224 54.3611 275.593 51.3928 274.114 51.7105C266.715 53.1538 259.463 55.2723 252.45 58.0395C246.506 60.5104 240.373 63.7577 235.704 69.3455C233.579 71.8684 232.007 74.8104 231.091 77.9805C230.176 81.1505 229.937 84.4778 230.389 87.7463C231.626 96.075 237.002 102.492 242.051 107.141C248.727 113.288 256.339 117.302 264.057 120.574C272.186 124.021 280.487 126.706 288.785 129.341C305.367 134.605 322.692 139.297 337.661 150.499C348.132 158.335 362.357 173.028 358.874 191.24C357.327 199.324 352.632 205.645 347.565 210.294C341.615 215.592 334.753 219.767 327.313 222.614C294.143 235.97 257.636 226.419 225.32 244.56C214.333 250.728 200.987 261.958 200.879 279.627C200.823 288.806 204.501 297.224 209.047 303.878C214.492 311.848 221.544 317.741 228.718 322.667C236.272 327.663 244.116 332.207 252.208 336.274C261.048 340.92 269.889 345.559 278.733 350.192L332.402 378.351L359.067 392.342C367.206 396.612 375.553 400.708 382.953 406.976C389.011 412.109 396.17 420.529 395.551 430.984C395.06 439.287 389.547 445.279 384.51 449.286C377.986 454.473 370.658 457.828 363.367 460.617C354.957 463.833 346.409 466.5 337.844 468.899C320.301 473.805 302.396 477.311 284.298 479.385C266.245 481.465 248.058 482.143 229.9 481.414C220.726 481.045 211.566 480.31 202.42 479.211C192.993 478.075 183.605 476.325 174.154 475.549C165.604 474.846 156.973 475.009 148.553 477.266C141.523 479.151 134.096 482.511 128.76 489.067C124.827 494.071 122.857 500.342 123.222 506.698C123.583 513.041 125.844 519.129 129.709 524.17C133.636 529.318 139.153 533.023 145.402 534.71C146.875 535.108 147.506 532.14 146.026 531.74L146.025 531.74Z" fill="#E6E6E6"/>
<path d="M412 533.146H143.978V535H412V533.146Z" fill="#3F3D56"/>
<path d="M390.526 445.792C400.196 445.792 408.035 437.948 408.035 428.273C408.035 418.598 400.196 410.755 390.526 410.755C380.856 410.755 373.017 418.598 373.017 428.273C373.017 437.948 380.856 445.792 390.526 445.792Z" fill="#E6E6E6"/>
<path d="M358.582 198.88C368.253 198.88 376.092 191.037 376.092 181.362C376.092 171.687 368.253 163.844 358.582 163.844C348.912 163.844 341.073 171.687 341.073 181.362C341.073 191.037 348.912 198.88 358.582 198.88Z" fill="#E6E6E6"/>
<path d="M318.996 0.732718L270.379 21.8788C268.232 22.8156 266.544 24.5663 265.685 26.7469C264.826 28.9274 264.867 31.3597 265.799 33.5102L280.895 68.2547C281.831 70.4031 283.581 72.0921 285.761 72.9513C287.94 73.8104 290.371 73.7695 292.52 72.8375L341.137 51.6915C343.285 50.7547 344.973 49.0039 345.832 46.8234C346.69 44.6428 346.649 42.2105 345.718 40.06L330.621 5.31546C329.685 3.16712 327.935 1.47811 325.756 0.618972C323.576 -0.240161 321.145 -0.199252 318.996 0.732718V0.732718ZM321.009 5.36533C321.3 5.24023 321.605 5.15226 321.918 5.10351L305.481 36.1313L271.721 26.8879C271.931 26.74 272.156 26.6138 272.392 26.5114L321.009 5.36533ZM339.125 47.0589L290.507 68.2049C289.586 68.6043 288.544 68.6218 287.61 68.2536C286.676 67.8854 285.926 67.1615 285.525 66.2408L270.564 31.8083L306.098 41.5376C306.652 41.689 307.24 41.6474 307.767 41.4196C308.293 41.1918 308.726 40.7913 308.995 40.2842L326.199 7.80785L341.088 42.0739C341.487 42.9955 341.504 44.038 341.136 44.9725C340.768 45.907 340.045 46.6573 339.125 47.0589V47.0589Z" fill="#E6E6E6"/>
<path d="M264.466 302.113C288.914 302.113 308.734 282.283 308.734 257.822C308.734 233.36 288.914 213.531 264.466 213.531C240.017 213.531 220.198 233.36 220.198 257.822C220.198 282.283 240.017 302.113 264.466 302.113Z" fill="#F9A826"/>
<path d="M257.491 533.691H245.282C243.857 533.689 242.49 533.122 241.482 532.114C240.474 531.105 239.907 529.738 239.906 528.312V426.508C239.907 425.082 240.474 423.715 241.482 422.707C242.49 421.698 243.857 421.131 245.282 421.129H257.491C258.916 421.131 260.283 421.698 261.291 422.707C262.298 423.715 262.865 425.082 262.867 426.508V528.312C262.865 529.738 262.298 531.105 261.291 532.114C260.283 533.122 258.916 533.689 257.491 533.691Z" fill="#2F2E41"/>
<path d="M281.637 533.691H269.428C268.003 533.689 266.636 533.122 265.629 532.114C264.621 531.105 264.054 529.738 264.052 528.312V426.508C264.054 425.082 264.621 423.715 265.629 422.707C266.636 421.698 268.003 421.131 269.428 421.129H281.637C283.062 421.131 284.429 421.698 285.437 422.707C286.445 423.715 287.012 425.082 287.013 426.508V528.312C287.012 529.738 286.445 531.105 285.437 532.114C284.429 533.122 283.062 533.689 281.637 533.691Z" fill="#2F2E41"/>
<path d="M332.228 415.863C331.691 415.862 331.158 415.782 330.645 415.625C329.97 415.419 329.341 415.081 328.797 414.631C328.252 414.181 327.802 413.628 327.472 413.003L279.775 323.077C279.444 322.453 279.239 321.77 279.172 321.067C279.105 320.364 279.177 319.654 279.384 318.979C279.591 318.304 279.929 317.676 280.378 317.131C280.828 316.586 281.38 316.136 282.004 315.804L292.787 310.078C293.411 309.747 294.094 309.542 294.797 309.475C295.5 309.407 296.209 309.479 296.884 309.686C297.559 309.893 298.187 310.232 298.731 310.681C299.276 311.131 299.726 311.684 300.057 312.308L347.754 402.234C348.085 402.858 348.29 403.541 348.357 404.244C348.424 404.947 348.352 405.657 348.145 406.332C347.938 407.008 347.601 407.636 347.151 408.18C346.701 408.725 346.149 409.176 345.525 409.507L334.741 415.233C333.968 415.646 333.105 415.862 332.228 415.863V415.863Z" fill="#F9A826"/>
<path d="M232.935 332.975C232.29 332.975 231.65 332.858 231.046 332.63H231.045L135.859 296.652C135.199 296.402 134.595 296.025 134.08 295.541C133.566 295.058 133.152 294.477 132.862 293.834C132.572 293.19 132.412 292.495 132.39 291.789C132.369 291.083 132.486 290.38 132.737 289.72L137.043 278.293C137.551 276.96 138.566 275.883 139.866 275.297C141.166 274.711 142.645 274.664 143.979 275.167L239.163 311.136C240.495 311.643 241.571 312.657 242.158 313.956C242.745 315.254 242.794 316.733 242.295 318.067L237.981 329.496C237.591 330.519 236.9 331.4 235.999 332.021C235.098 332.642 234.029 332.975 232.935 332.975V332.975Z" fill="#F9A826"/>
<path d="M291.698 309.808H236.228C233.487 309.808 231.265 312.031 231.265 314.773V432.683C231.265 435.425 233.487 437.649 236.228 437.649H291.698C294.439 437.649 296.661 435.425 296.661 432.683V314.773C296.661 312.031 294.439 309.808 291.698 309.808Z" fill="#2F2E41"/>
<path d="M297.164 214.448C299.765 220.158 302.254 227.06 299.455 233.17C298.428 235.637 296.501 237.622 294.065 238.721C291.179 239.872 288.034 239.215 285.36 237.823C279.731 234.892 276.102 229.445 271.076 225.713C268.787 223.93 266.081 222.763 263.214 222.323C259.911 221.893 256.633 222.672 253.402 223.274C249.966 223.914 246.415 224.252 243.235 222.509C240.438 220.872 238.249 218.37 236.998 215.379C236.343 213.924 234.204 215.185 234.855 216.632C237.559 222.637 243.151 226.73 249.87 226.256C253.425 226.006 256.859 224.857 260.42 224.693C263.669 224.585 266.855 225.604 269.439 227.577C274.957 231.513 278.703 237.558 285.034 240.417C288.021 241.766 291.442 242.328 294.592 241.166C297.308 240.109 299.571 238.137 300.991 235.59C305.146 228.432 302.478 220.158 299.306 213.195C298.645 211.743 296.506 213.003 297.164 214.448V214.448Z" fill="#2F2E41"/>
<path d="M269.36 272.61C266.626 272.534 263.222 272.438 260.6 270.522C259.82 269.928 259.178 269.171 258.721 268.302C258.264 267.434 258.002 266.477 257.953 265.497C257.906 264.8 258.02 264.102 258.287 263.457C258.554 262.812 258.966 262.237 259.492 261.778C260.861 260.621 262.86 260.349 265.016 260.983L262.783 244.658L264.423 244.434L267.047 263.625L265.679 262.997C264.093 262.269 261.914 261.898 260.56 263.042C260.228 263.342 259.969 263.713 259.804 264.129C259.638 264.544 259.571 264.992 259.607 265.438C259.647 266.168 259.844 266.88 260.183 267.526C260.523 268.173 260.998 268.739 261.576 269.185C263.617 270.676 266.329 270.87 269.407 270.955L269.36 272.61Z" fill="#2F2E41"/>
<path d="M254.678 246.066H245.768V247.721H254.678V246.066Z" fill="#2F2E41"/>
<path d="M282.801 246.066H273.891V247.721H282.801V246.066Z" fill="#2F2E41"/>
<path d="M231.191 332.243L192.073 320.309C190.853 319.937 189.823 319.109 189.197 317.997C188.57 316.885 188.396 315.575 188.71 314.338L193.277 296.334C193.457 295.623 193.793 294.961 194.26 294.395C194.726 293.829 195.313 293.374 195.976 293.062C196.64 292.75 197.365 292.589 198.098 292.59C198.831 292.592 199.555 292.756 200.218 293.071L239.017 311.524C240.247 311.991 241.242 312.926 241.784 314.125C242.325 315.324 242.37 316.689 241.908 317.921L237.594 329.35C237.127 330.582 236.191 331.579 234.991 332.122C233.79 332.664 232.424 332.708 231.191 332.243V332.243Z" fill="#2F2E41"/>
<path d="M280.478 322.059L297.255 359.376C297.778 360.54 298.729 361.457 299.911 361.938C301.092 362.419 302.413 362.426 303.6 361.959L320.872 355.151C321.555 354.882 322.169 354.465 322.671 353.93C323.173 353.395 323.55 352.756 323.776 352.058C324.001 351.359 324.069 350.62 323.975 349.892C323.881 349.165 323.626 348.467 323.23 347.849L300.032 311.673C299.413 310.511 298.36 309.642 297.103 309.256C295.846 308.87 294.487 308.998 293.324 309.612L282.538 315.339C281.375 315.958 280.505 317.013 280.119 318.273C279.732 319.533 279.862 320.894 280.478 322.059V322.059Z" fill="#2F2E41"/>
<path d="M121.512 200.789L6.51144 175.969L5.01691 175.647C4.25583 175.481 3.46355 175.534 2.73118 175.799C1.99881 176.064 1.35608 176.531 0.876919 177.145C0.397757 177.76 0.101603 178.497 0.022537 179.272C-0.0565292 180.047 0.084709 180.829 0.429976 181.527L46.0898 274.3C46.3853 274.896 46.8196 275.412 47.3561 275.806C47.8927 276.199 48.5158 276.457 49.1729 276.559C49.8322 276.661 50.5064 276.602 51.1375 276.385C51.7686 276.169 52.3375 275.802 52.7951 275.316L84.5093 241.859C84.7349 241.615 85.0086 241.42 85.313 241.287C85.6175 241.154 85.9462 241.085 86.2784 241.086C86.73 241.079 87.1748 241.196 87.5652 241.423C87.9556 241.65 88.277 241.979 88.4949 242.375L94.9908 254.397C95.4055 255.198 96.0763 255.838 96.8964 256.214C97.7165 256.59 98.6387 256.681 99.5163 256.472L99.5486 256.464C100.437 256.276 101.236 255.795 101.818 255.097C102.399 254.399 102.73 253.527 102.756 252.618L104.057 224.868C104.072 224.522 104.159 224.183 104.311 223.871C104.474 223.563 104.695 223.289 104.963 223.066L123.259 208.039C123.86 207.545 124.311 206.892 124.558 206.154C124.805 205.416 124.839 204.623 124.657 203.866C124.475 203.109 124.083 202.419 123.527 201.875C122.97 201.331 122.272 200.954 121.512 200.789H121.512ZM122.214 206.762L103.918 221.788C103.68 221.981 103.464 222.199 103.274 222.439C103.103 222.653 102.955 222.885 102.834 223.13C102.706 223.381 102.605 223.645 102.534 223.917L102.535 223.925C102.46 224.209 102.416 224.5 102.405 224.793L101.104 252.543C101.093 253.089 100.897 253.615 100.548 254.034C100.199 254.453 99.7173 254.741 99.1829 254.85L99.1668 254.854C98.6402 254.985 98.0848 254.934 97.5907 254.709C97.0967 254.485 96.6929 254.1 96.4449 253.617L89.9471 241.587C89.6123 240.969 89.1251 240.446 88.5316 240.068C87.9381 239.691 87.2581 239.471 86.556 239.431L86.5481 239.433C86.4537 239.428 86.3596 239.423 86.2673 239.427C85.6122 239.427 84.9671 239.588 84.3879 239.894C83.9833 240.104 83.618 240.383 83.3081 240.718L51.5942 274.175C51.319 274.465 50.978 274.684 50.6001 274.813C50.2222 274.943 49.8186 274.979 49.4237 274.92C49.0287 274.86 48.654 274.705 48.3314 274.47C48.0088 274.234 47.7479 273.924 47.5707 273.565L1.91093 180.793C1.7068 180.374 1.62445 179.905 1.67327 179.442C1.72209 178.978 1.9001 178.537 2.18703 178.17C2.47396 177.803 2.85828 177.523 3.29618 177.364C3.73409 177.204 4.20798 177.171 4.66387 177.268L6.19389 177.598L121.158 202.41C121.615 202.509 122.034 202.734 122.369 203.06C122.703 203.387 122.939 203.801 123.049 204.255C123.159 204.709 123.139 205.185 122.992 205.628C122.844 206.072 122.575 206.464 122.214 206.762V206.762Z" fill="#3F3D56"/>
<path d="M103.641 222.604L102.958 224.112L102.535 223.925L102.534 223.917L5.64 179.959L86.5481 239.433L86.556 239.431L86.7703 239.595L85.7947 240.93L84.3879 239.894L4.65655 181.295C4.343 181.07 4.11812 180.741 4.02082 180.367C3.92352 179.993 3.95992 179.597 4.12371 179.247C4.2875 178.897 4.5684 178.616 4.91781 178.451C5.26723 178.286 5.66319 178.249 6.03722 178.345C6.12886 178.368 6.21807 178.399 6.3036 178.439L103.274 222.439L103.641 222.604Z" fill="#3F3D56"/>
</svg>
