<svg width="634" height="564" viewBox="0 0 634 564" fill="none" xmlns="http://www.w3.org/2000/svg">
<g clip-path="url(#clip0_4_23)">
<path d="M123.962 561.748C130.33 556.368 134.198 547.867 133.184 539.592C132.17 531.317 125.887 523.71 117.737 521.953C109.587 520.196 100.297 525.06 97.8213 533.021C96.459 517.672 94.8892 501.681 86.7288 488.61C79.3397 476.775 66.5417 468.307 52.6716 466.792C38.8014 465.277 24.1979 470.999 15.5476 481.946C6.89735 492.893 4.77935 508.808 10.8378 521.377C15.3008 530.635 23.5233 537.526 32.1385 543.131C59.6237 561.015 93.7192 567.058 126.161 562.284L123.962 561.748Z" fill="#F2F2F2"/>
<path d="M29.2636 471.316C40.7082 480.637 51.2074 491.063 60.6093 502.441C70.0128 513.808 78.2915 526.06 85.3292 539.025C89.2629 546.298 92.7967 553.78 95.9148 561.439C96.5505 562.996 94.0208 563.675 93.3921 562.134C87.8693 548.633 81.0366 535.705 72.9918 523.537C64.9861 511.413 55.8232 500.093 45.6317 489.738C39.8674 483.884 33.7856 478.352 27.4137 473.166C26.1077 472.102 27.9683 470.261 29.2636 471.316H29.2636Z" fill="white"/>
<path d="M579.85 233.357H492.737C491.423 233.355 490.163 232.833 489.234 231.903C488.304 230.974 487.782 229.714 487.78 228.4V217.948C487.782 216.634 488.304 215.374 489.234 214.445C490.163 213.516 491.423 212.993 492.737 212.992H579.85C581.164 212.993 582.424 213.516 583.353 214.445C584.283 215.374 584.806 216.634 584.807 217.948V228.4C584.806 229.714 584.283 230.974 583.353 231.903C582.424 232.833 581.164 233.355 579.85 233.357Z" fill="#F9A826"/>
<path d="M568.095 217.376L530.97 183.903C530.17 183.182 529.142 182.764 528.066 182.722C526.99 182.681 525.933 183.019 525.08 183.677L443.833 210.502C442.675 210.886 441.716 211.714 441.167 212.804C440.618 213.894 440.524 215.157 440.906 216.316L444.183 226.241C444.371 226.815 444.671 227.347 445.066 227.806C445.46 228.264 445.942 228.64 446.482 228.912C447.022 229.184 447.611 229.346 448.214 229.39C448.817 229.434 449.423 229.359 449.997 229.168L524.525 204.561L554.931 231.975C555.773 232.739 556.87 233.162 558.008 233.16C558.089 233.16 558.17 233.158 558.251 233.153C558.855 233.124 559.447 232.975 559.993 232.715C560.539 232.455 561.029 232.089 561.432 231.639L568.431 223.877C569.247 222.97 569.67 221.776 569.607 220.557C569.544 219.338 569 218.194 568.095 217.376Z" fill="#F9A826"/>
<path d="M157.001 467.678C155.874 467.68 154.794 468.128 153.998 468.924C153.201 469.721 152.753 470.801 152.752 471.927V559.038C152.753 560.164 153.201 561.244 153.998 562.04C154.794 562.837 155.874 563.285 157.001 563.286H167.453C168.579 563.285 169.659 562.837 170.456 562.04C171.252 561.244 171.701 560.164 171.702 559.038V471.927C171.701 470.801 171.252 469.721 170.456 468.924C169.659 468.128 168.579 467.68 167.453 467.678H157.001Z" fill="#F9A826"/>
<path d="M189.542 563.994H179.09C177.775 563.993 176.515 563.47 175.586 562.541C174.657 561.612 174.134 560.352 174.133 559.038V471.927C174.134 470.613 174.657 469.353 175.586 468.424C176.515 467.494 177.775 466.972 179.09 466.97H189.542C190.856 466.972 192.116 467.494 193.045 468.424C193.974 469.353 194.497 470.613 194.499 471.927V559.038C194.497 560.352 193.974 561.612 193.045 562.541C192.116 563.47 190.856 563.993 189.542 563.994Z" fill="#F9A826"/>
<path d="M206.654 478.68C206.654 478.68 210.603 514.189 170.737 512.983C130.872 511.777 146.382 476.886 146.382 476.886C146.382 476.886 154.713 470.339 175.772 476.671C196.832 483.003 206.654 478.68 206.654 478.68Z" fill="#CCCCCC"/>
<path d="M189.523 418.251C187.333 418.255 185.2 417.552 183.441 416.248C181.682 414.944 180.391 413.108 179.758 411.012C179.125 408.915 179.185 406.671 179.929 404.612C180.673 402.552 182.061 400.787 183.888 399.579L252.173 354.386C252.716 354.027 253.324 353.778 253.963 353.654C254.602 353.53 255.26 353.532 255.898 353.662C256.535 353.792 257.142 354.046 257.681 354.41C258.221 354.774 258.684 355.241 259.043 355.784L264.811 364.5C265.535 365.596 265.795 366.936 265.533 368.223C265.271 369.511 264.509 370.642 263.413 371.369L195.128 416.562C193.466 417.665 191.517 418.252 189.523 418.251Z" fill="#F9A826"/>
<path d="M177.124 376.415C197.07 376.415 213.24 360.246 213.24 340.3C213.24 320.354 197.07 304.185 177.124 304.185C157.178 304.185 141.008 320.354 141.008 340.3C141.008 360.246 157.178 376.415 177.124 376.415Z" fill="#F9A826"/>
<path d="M177.151 355.46C179.492 355.395 182.405 355.314 184.65 353.674C185.318 353.166 185.868 352.518 186.259 351.775C186.651 351.032 186.875 350.213 186.916 349.374C186.957 348.778 186.859 348.181 186.63 347.629C186.402 347.077 186.049 346.585 185.599 346.192C184.426 345.202 182.714 344.969 180.87 345.512L182.781 331.543L181.378 331.351L179.131 347.773L180.303 347.235C181.661 346.612 183.526 346.295 184.685 347.274C184.969 347.53 185.191 347.848 185.332 348.204C185.474 348.559 185.532 348.943 185.501 349.324C185.466 349.949 185.298 350.558 185.007 351.111C184.716 351.665 184.309 352.149 183.815 352.531C182.068 353.807 179.745 353.971 177.111 354.045L177.151 355.46Z" fill="#2F2E41"/>
<path d="M197.348 332.748H189.72V334.164H197.348V332.748Z" fill="#2F2E41"/>
<path d="M173.271 332.748H165.643V334.164H173.271V332.748Z" fill="#2F2E41"/>
<path d="M140.643 486.162C140.643 486.162 137.524 380.144 181.18 387.419C224.836 394.695 206.646 497.075 206.646 497.075C206.646 497.075 197.291 515.784 174.424 494.997C151.557 474.209 140.643 486.162 140.643 486.162Z" fill="#2F2E41"/>
<path d="M156.754 309.796C163.781 305.025 172.65 308.266 179.478 311.671C186.11 314.978 193.582 319.185 201.086 316C204.016 314.756 206.398 312.323 206.812 309.067C207.305 305.189 204.96 301.559 202.351 298.922C199.517 296.21 196.214 294.033 192.603 292.498C189.064 290.905 185.335 289.771 181.508 289.124C173.927 287.814 166.143 288.335 158.804 290.642C151.465 292.949 144.783 296.977 139.316 302.388C134.026 307.783 129.94 314.237 127.324 321.325C124.709 328.413 123.625 335.974 124.143 343.511C124.74 351.545 127.306 359.737 132.454 366.044C137.284 371.961 144.516 376.121 152.235 376.469C154.126 376.557 156.021 376.403 157.873 376.011C159.207 375.726 159.777 377.774 158.438 378.059C150.399 379.773 142.07 377.226 135.694 372.211C128.982 366.932 124.864 358.939 123.058 350.704C119.603 334.944 123.931 317.984 133.851 305.368C138.75 299.083 145.095 294.076 152.347 290.774C159.836 287.43 168.017 285.928 176.205 286.396C184.371 286.806 192.293 289.316 199.206 293.683C205.388 297.679 212.356 306.148 207.314 313.642C205.428 316.444 202.298 318.151 199.048 318.853C195.319 319.578 191.461 319.242 187.913 317.883C179.836 315.031 172.365 308.657 163.324 309.623C161.354 309.828 159.465 310.517 157.826 311.63C156.692 312.4 155.628 310.561 156.753 309.796H156.754Z" fill="#2F2E41"/>
<path d="M465.316 145.31C463.681 144.259 462.393 142.747 461.617 140.964C460.841 139.182 460.611 137.21 460.956 135.297C461.301 133.383 462.205 131.615 463.555 130.216C464.905 128.817 466.639 127.85 468.538 127.436L548.551 110.019C549.744 109.761 550.99 109.986 552.017 110.646C553.044 111.305 553.767 112.345 554.028 113.537L553.682 113.613L554.028 113.537L556.251 123.75C556.38 124.341 556.391 124.951 556.283 125.546C556.176 126.141 555.953 126.709 555.626 127.217C555.299 127.726 554.876 128.165 554.379 128.51C553.883 128.854 553.323 129.098 552.732 129.227L472.72 146.644C472.373 146.72 472.022 146.777 471.669 146.815C469.442 147.058 467.198 146.526 465.316 145.31Z" fill="#F9A826"/>
<path d="M458.765 139.537C458.717 139.347 458.675 139.155 458.638 138.961C457.98 135.496 459.182 131.847 462.022 128.687C465.106 125.406 469.133 123.163 473.547 122.268L510.024 114.287C510.625 114.156 511.247 114.146 511.851 114.259C512.456 114.372 513.032 114.604 513.546 114.943C514.059 115.283 514.499 115.721 514.84 116.233C515.181 116.745 515.416 117.321 515.53 117.925L518.713 134.689C518.943 135.867 518.701 137.089 518.039 138.09C517.377 139.092 516.349 139.794 515.175 140.044L478.466 148.075C476.811 148.44 475.121 148.626 473.427 148.629C466.195 148.629 460.174 145.107 458.765 139.537Z" fill="#2F2E41"/>
<path d="M465.149 102.025C485.095 102.025 501.265 85.8562 501.265 65.9105C501.265 45.9649 485.095 29.7957 465.149 29.7957C445.203 29.7957 429.033 45.9649 429.033 65.9105C429.033 85.8562 445.203 102.025 465.149 102.025Z" fill="#F9A826"/>
<path d="M495.626 78.9465C497.967 78.8815 500.881 78.8003 503.126 77.1606C503.794 76.6523 504.343 76.0041 504.735 75.2612C505.126 74.5184 505.35 73.6989 505.392 72.8603C505.432 72.2643 505.335 71.6669 505.106 71.115C504.878 70.563 504.524 70.0714 504.074 69.6785C502.902 68.6879 501.19 68.4555 499.345 68.9977L501.257 55.0294L499.853 54.8371L497.606 71.2587L498.778 70.721C500.137 70.098 502.001 69.7809 503.16 70.7601C503.445 71.0161 503.666 71.3343 503.808 71.6899C503.95 72.0455 504.007 72.429 503.976 72.8105C503.942 73.4347 503.774 74.0442 503.483 74.5974C503.192 75.1507 502.785 75.6348 502.29 76.0168C500.543 77.2927 498.221 77.4573 495.587 77.531L495.626 78.9465Z" fill="#2F2E41"/>
<path d="M491.747 56.234H484.119V57.6503H491.747V56.234Z" fill="#2F2E41"/>
<path d="M462.622 29.6889C462.357 25.4198 461.177 21.2576 459.162 17.4842C457.148 13.7108 454.347 10.4142 450.947 7.81778C447.435 5.21707 443.382 3.44137 439.089 2.62266C434.796 1.80395 430.374 1.9633 426.151 3.08886C421.956 4.17908 418.062 6.20753 414.765 9.02129C411.467 11.8351 408.851 15.3607 407.115 19.3324C405.366 23.2746 404.494 27.5491 404.558 31.861C404.751 36.5501 405.916 41.148 407.979 45.3631C410.108 50.0029 412.794 54.3559 415.127 58.8915C417.425 63.364 419.407 67.9916 421.059 72.7404C424.422 82.4166 426.405 92.5177 426.952 102.747C427.819 118.871 426.276 142.412 408.073 148.601C403.444 150.174 398.45 150.467 393.597 150.454C388.485 150.517 383.387 149.92 378.428 148.678C369.834 146.383 361.676 140.995 358.015 132.623C357.171 130.69 356.605 128.647 356.334 126.555C356.258 125.981 356.877 125.498 357.396 125.493C357.676 125.499 357.942 125.613 358.14 125.811C358.338 126.009 358.452 126.275 358.459 126.555C359.644 135.476 367.078 142.317 375.149 145.393C379.865 147.102 384.82 148.061 389.833 148.233C394.823 148.485 400.004 148.446 404.89 147.298C409.239 146.357 413.196 144.108 416.23 140.852C418.935 137.739 420.952 134.09 422.15 130.143C425.023 121.373 425.324 111.73 424.819 102.59C424.248 92.3941 422.222 82.3327 418.802 72.711C417.074 67.853 414.99 63.1292 412.567 58.5781C410.2 54.1266 407.572 49.8009 405.578 45.1609C403.631 40.8962 402.561 36.2839 402.43 31.5978C402.415 27.2699 403.276 22.9837 404.963 18.9979C406.62 14.9962 409.106 11.3904 412.256 8.41735C415.406 5.44426 419.149 3.1711 423.24 1.74713C427.402 0.298413 431.821 -0.264114 436.213 0.0956542C440.606 0.455422 444.874 1.72954 448.745 3.83621C452.427 5.95279 455.653 8.77814 458.237 12.149C460.82 15.5198 462.71 19.3692 463.797 23.4748C464.325 25.5083 464.643 27.5905 464.747 29.6889C464.817 31.0553 462.692 31.0515 462.622 29.6889H462.622Z" fill="#2F2E41"/>
<path d="M455.56 30.4347C454.98 26.4945 453.006 22.8931 449.996 20.2851C446.797 17.6035 442.695 16.2422 438.527 16.4786C437.161 16.5469 437.165 14.4223 438.527 14.3542C443.057 14.1499 447.504 15.6178 451.023 18.4786C454.541 21.3395 456.885 25.3936 457.608 29.87C457.813 31.2074 455.766 31.784 455.56 30.4347Z" fill="#2F2E41"/>
<path d="M451.096 30.5576C450.772 29.5768 450.852 28.5075 451.316 27.5849C451.781 26.6624 452.593 25.9622 453.574 25.6384L463.66 22.3079C464.641 21.9841 465.711 22.0631 466.633 22.5277C467.556 22.9922 468.256 23.8042 468.58 24.785C468.904 25.7658 468.825 26.8351 468.36 27.7577C467.895 28.6802 467.083 29.3804 466.103 29.7043L456.016 33.0347C455.53 33.1953 455.018 33.2585 454.508 33.2209C453.997 33.1833 453.5 33.0455 453.043 32.8155C452.586 32.5855 452.179 32.2677 451.845 31.8803C451.511 31.4928 451.256 31.0434 451.096 30.5577V30.5576Z" fill="#2F2E41"/>
<path d="M529.864 79.6297C529.213 79.7674 528.613 80.0859 528.134 80.5487C527.655 81.0115 527.316 81.5999 527.156 82.2465C526.996 82.8931 527.021 83.5717 527.229 84.2045C527.437 84.8373 527.819 85.3987 528.332 85.8244L543.919 98.7751C544.147 98.9679 544.335 99.2031 544.473 99.4677C544.602 99.7349 544.674 100.026 544.686 100.322L545.659 124.073C545.676 124.85 545.955 125.599 546.449 126.199C546.943 126.799 547.625 127.215 548.385 127.38L548.412 127.387C549.163 127.57 549.953 127.497 550.657 127.18C551.361 126.862 551.938 126.318 552.297 125.634L557.92 115.381C558.108 115.043 558.385 114.763 558.72 114.571C559.056 114.379 559.437 114.281 559.824 114.289C560.108 114.29 560.389 114.351 560.649 114.466C560.909 114.582 561.143 114.749 561.334 114.959L588.316 143.749C588.705 144.167 589.19 144.483 589.729 144.672C590.269 144.86 590.846 144.915 591.411 144.83C591.974 144.746 592.508 144.529 592.97 144.195C593.431 143.861 593.806 143.422 594.062 142.913L633.624 63.7641C633.923 63.1682 634.048 62.4999 633.984 61.8362C633.92 61.1725 633.67 60.5403 633.263 60.0122C632.856 59.4841 632.308 59.0817 631.683 58.8511C631.057 58.6206 630.379 58.5713 629.726 58.7089L628.445 58.9767L529.864 79.6297L529.864 79.6297ZM529.233 84.7366C528.926 84.4804 528.697 84.1429 528.573 83.7628C528.449 83.3827 528.434 82.9754 528.531 82.5874C528.628 82.1994 528.831 81.8465 529.119 81.569C529.407 81.2915 529.767 81.1007 530.159 81.0184L628.709 60.3728L630.02 60.0975C630.411 60.017 630.817 60.0479 631.191 60.1866C631.565 60.3254 631.892 60.5664 632.136 60.8823C632.38 61.1981 632.53 61.5761 632.57 61.9731C632.609 62.3701 632.536 62.7703 632.359 63.1279L592.797 142.277C592.644 142.583 592.419 142.847 592.142 143.047C591.864 143.247 591.543 143.377 591.204 143.426C590.866 143.476 590.52 143.442 590.198 143.33C589.875 143.217 589.584 143.028 589.35 142.778L562.369 113.989C562.105 113.701 561.794 113.461 561.448 113.279L630.006 63.5439C630.276 63.3524 630.47 63.0727 630.555 62.7532C630.64 62.4337 630.611 62.0944 630.473 61.7941C630.334 61.4938 630.095 61.2514 629.797 61.1086C629.499 60.9659 629.16 60.9319 628.839 61.0126C628.761 61.0313 628.684 61.0576 628.611 61.0912L545.368 98.2477C545.207 98.041 545.023 97.853 544.82 97.6874L529.233 84.7367V84.7366Z" fill="#CCCCCC"/>
<path d="M529.864 79.6297C529.213 79.7674 528.613 80.0859 528.134 80.5487C527.655 81.0115 527.316 81.5999 527.156 82.2465C526.996 82.8931 527.021 83.5717 527.229 84.2045C527.437 84.8373 527.819 85.3987 528.332 85.8244L543.919 98.7751C544.147 98.9679 544.335 99.2031 544.473 99.4677C544.602 99.7349 544.674 100.026 544.686 100.322L545.659 124.073C545.676 124.85 545.955 125.599 546.449 126.199C546.943 126.799 547.625 127.215 548.385 127.38L548.412 127.387C549.163 127.57 549.953 127.497 550.657 127.18C551.361 126.862 551.938 126.318 552.297 125.634L557.92 115.381C558.108 115.043 558.385 114.763 558.72 114.571C559.056 114.379 559.437 114.281 559.824 114.289C560.108 114.29 560.389 114.351 560.649 114.466C560.909 114.582 561.143 114.749 561.334 114.959L588.316 143.749C588.705 144.167 589.19 144.483 589.729 144.672C590.269 144.86 590.846 144.915 591.411 144.83C591.974 144.746 592.508 144.529 592.97 144.195C593.431 143.861 593.806 143.422 594.062 142.913L633.624 63.7641C633.923 63.1682 634.048 62.4999 633.984 61.8362C633.92 61.1725 633.67 60.5403 633.263 60.0122C632.856 59.4841 632.308 59.0817 631.683 58.8511C631.057 58.6206 630.379 58.5713 629.726 58.7089L628.445 58.9767L529.864 79.6297L529.864 79.6297ZM529.233 84.7366C528.926 84.4804 528.697 84.1429 528.573 83.7628C528.449 83.3827 528.434 82.9754 528.531 82.5874C528.628 82.1994 528.831 81.8465 529.119 81.569C529.407 81.2915 529.767 81.1007 530.159 81.0184L628.709 60.3728L630.02 60.0975C630.411 60.017 630.817 60.0479 631.191 60.1866C631.565 60.3254 631.892 60.5664 632.136 60.8823C632.38 61.1981 632.53 61.5761 632.57 61.9731C632.609 62.3701 632.536 62.7703 632.359 63.1279L592.797 142.277C592.644 142.583 592.419 142.847 592.142 143.047C591.864 143.247 591.543 143.377 591.204 143.426C590.866 143.476 590.52 143.442 590.198 143.329C589.875 143.217 589.584 143.028 589.35 142.778L562.369 113.989C562.105 113.701 561.794 113.461 561.448 113.279C560.954 113.014 560.403 112.873 559.842 112.87C559.763 112.866 559.682 112.87 559.601 112.873L559.595 112.871C558.993 112.903 558.41 113.087 557.9 113.407C557.39 113.727 556.97 114.172 556.68 114.7L551.056 124.96C550.842 125.372 550.494 125.699 550.07 125.888C549.646 126.078 549.17 126.119 548.72 126.004L548.706 126.001C548.249 125.905 547.838 125.656 547.542 125.295C547.245 124.935 547.079 124.484 547.073 124.017L546.1 100.266C546.092 100.015 546.056 99.7658 545.993 99.5228L545.995 99.5159C545.934 99.2827 545.85 99.0565 545.742 98.8411C545.639 98.6306 545.514 98.4317 545.368 98.2477C545.207 98.041 545.023 97.853 544.82 97.6874L529.233 84.7367V84.7366Z" fill="#3F3D56"/>
<path d="M545.368 98.2477L628.611 61.0912C628.684 61.0576 628.761 61.0312 628.839 61.0125C629.16 60.9319 629.499 60.9659 629.797 61.1086C630.095 61.2513 630.334 61.4938 630.473 61.7941C630.611 62.0944 630.64 62.4336 630.555 62.7532C630.47 63.0727 630.276 63.3524 630.006 63.5439L561.448 113.279L560.239 114.158L559.41 113.011L559.595 112.872L559.601 112.873L629.171 62.3953L545.995 99.5159L545.993 99.5228L545.631 99.6801L545.053 98.3867L545.368 98.2477Z" fill="#3F3D56"/>
<path d="M441.366 210.995C440.333 210.997 439.343 211.407 438.613 212.138C437.883 212.868 437.472 213.858 437.471 214.89V229.053C437.472 230.085 437.883 231.075 438.613 231.806C439.343 232.536 440.333 232.946 441.366 232.948H486.688C487.72 232.946 488.71 232.536 489.44 231.806C490.171 231.075 490.581 230.085 490.582 229.053V214.89C490.581 213.858 490.171 212.868 489.44 212.138C488.71 211.407 487.72 210.997 486.688 210.995H441.366Z" fill="#2F2E41"/>
<path d="M436.022 139.155C433.859 145.427 433.455 152.172 434.856 158.657C438.458 176.314 437.117 197.188 433.576 219.493C433.576 221.84 435.211 223.742 437.227 223.742H492.597C494.613 223.742 496.248 221.84 496.248 219.493V153.283C496.248 133.717 482.947 117.706 466.311 116.856C465.849 116.828 465.38 116.814 464.912 116.814C451.934 116.814 440.774 126.041 436.022 139.155Z" fill="#2F2E41"/>
<path d="M453.657 225.088V143.203C453.657 140.597 454.692 138.097 456.536 136.253C458.379 134.41 460.879 133.375 463.486 133.375C466.093 133.375 468.593 134.41 470.436 136.253C472.279 138.097 473.315 140.597 473.315 143.203V225.088C473.313 226.308 472.828 227.478 471.965 228.341C471.102 229.204 469.932 229.689 468.712 229.691H458.26C457.039 229.689 455.869 229.204 455.006 228.341C454.143 227.478 453.658 226.308 453.657 225.088Z" fill="#F9A826"/>
<path d="M470.47 166.438L455.613 165.784C454.394 165.729 453.246 165.193 452.422 164.293C451.598 163.393 451.165 162.202 451.217 160.983L452.26 137.284C452.326 135.702 452.704 134.148 453.371 132.713C454.038 131.277 454.982 129.987 456.148 128.916C457.315 127.846 458.681 127.016 460.169 126.474C461.656 125.932 463.236 125.689 464.818 125.759C466.4 125.829 467.952 126.209 469.387 126.88C470.821 127.55 472.109 128.497 473.177 129.666C474.244 130.835 475.071 132.203 475.61 133.692C476.148 135.181 476.387 136.761 476.314 138.343L475.271 162.042C475.219 163.226 474.712 164.344 473.857 165.163C473.001 165.983 471.862 166.441 470.678 166.443C470.609 166.443 470.539 166.441 470.47 166.438Z" fill="#2F2E41"/>
<path d="M496.248 181.608C498.008 181.608 499.434 177.011 499.434 171.34C499.434 165.669 498.008 161.072 496.248 161.072C494.488 161.072 493.061 165.669 493.061 171.34C493.061 177.011 494.488 181.608 496.248 181.608Z" fill="#2F2E41"/>
<path d="M321.607 299.158C331.385 299.158 339.311 291.232 339.311 281.455C339.311 271.677 331.385 263.751 321.607 263.751C311.83 263.751 303.903 271.677 303.903 281.455C303.903 291.232 311.83 299.158 321.607 299.158Z" fill="#CCCCCC"/>
<path d="M496.683 299.158H360.717C359.215 299.158 357.774 298.561 356.711 297.499C355.649 296.436 355.052 294.995 355.052 293.493C355.052 291.991 355.649 290.55 356.711 289.487C357.774 288.425 359.215 287.828 360.717 287.828H496.683C498.185 287.828 499.626 288.425 500.689 289.487C501.751 290.55 502.348 291.991 502.348 293.493C502.348 294.995 501.751 296.436 500.689 297.499C499.626 298.561 498.185 299.158 496.683 299.158Z" fill="#CCCCCC"/>
<path d="M459.859 275.082H360.717C359.215 275.082 357.774 274.485 356.711 273.422C355.649 272.36 355.052 270.919 355.052 269.416C355.052 267.914 355.649 266.473 356.711 265.411C357.774 264.348 359.215 263.751 360.717 263.751H459.859C461.361 263.751 462.802 264.348 463.865 265.411C464.927 266.473 465.524 267.914 465.524 269.416C465.524 270.919 464.927 272.36 463.865 273.422C462.802 274.485 461.361 275.082 459.859 275.082Z" fill="#CCCCCC"/>
<path d="M321.607 366.431C331.385 366.431 339.311 358.505 339.311 348.727C339.311 338.95 331.385 331.024 321.607 331.024C311.83 331.024 303.903 338.95 303.903 348.727C303.903 358.505 311.83 366.431 321.607 366.431Z" fill="#CCCCCC"/>
<path d="M496.683 366.431H360.717C359.215 366.431 357.774 365.834 356.711 364.771C355.649 363.709 355.052 362.268 355.052 360.766C355.052 359.263 355.649 357.822 356.711 356.76C357.774 355.697 359.215 355.101 360.717 355.101H496.683C498.185 355.101 499.626 355.697 500.689 356.76C501.751 357.822 502.348 359.263 502.348 360.766C502.348 362.268 501.751 363.709 500.689 364.771C499.626 365.834 498.185 366.431 496.683 366.431Z" fill="#CCCCCC"/>
<path d="M459.859 342.354H360.717C359.215 342.354 357.774 341.757 356.711 340.695C355.649 339.633 355.052 338.192 355.052 336.689C355.052 335.187 355.649 333.746 356.711 332.683C357.774 331.621 359.215 331.024 360.717 331.024H459.859C461.361 331.024 462.802 331.621 463.865 332.683C464.927 333.746 465.524 335.187 465.524 336.689C465.524 338.192 464.927 339.633 463.865 340.695C462.802 341.757 461.361 342.354 459.859 342.354Z" fill="#CCCCCC"/>
<path d="M321.607 434.412C331.385 434.412 339.311 426.486 339.311 416.708C339.311 406.931 331.385 399.005 321.607 399.005C311.83 399.005 303.903 406.931 303.903 416.708C303.903 426.486 311.83 434.412 321.607 434.412Z" fill="#CCCCCC"/>
<path d="M496.683 434.412H360.717C359.215 434.412 357.774 433.815 356.711 432.752C355.649 431.69 355.052 430.249 355.052 428.747C355.052 427.244 355.649 425.803 356.711 424.741C357.774 423.678 359.215 423.081 360.717 423.081H496.683C498.185 423.081 499.626 423.678 500.689 424.741C501.751 425.803 502.348 427.244 502.348 428.747C502.348 430.249 501.751 431.69 500.689 432.752C499.626 433.815 498.185 434.412 496.683 434.412Z" fill="#CCCCCC"/>
<path d="M459.859 410.335H360.717C359.215 410.335 357.774 409.738 356.711 408.676C355.649 407.613 355.052 406.172 355.052 404.67C355.052 403.167 355.649 401.727 356.711 400.664C357.774 399.602 359.215 399.005 360.717 399.005H459.859C461.361 399.005 462.802 399.602 463.865 400.664C464.927 401.727 465.524 403.167 465.524 404.67C465.524 406.172 464.927 407.613 463.865 408.676C462.802 409.738 461.361 410.335 459.859 410.335Z" fill="#CCCCCC"/>
<path d="M544.048 466.278H262.203C259.011 466.274 255.952 465.005 253.695 462.748C251.438 460.491 250.168 457.431 250.165 454.239V243.924C250.168 240.732 251.438 237.672 253.695 235.415C255.952 233.158 259.011 231.889 262.203 231.885H544.048C547.24 231.889 550.3 233.158 552.557 235.415C554.813 237.672 556.083 240.732 556.087 243.924V454.239C556.083 457.431 554.813 460.491 552.557 462.748C550.3 465.005 547.24 466.274 544.048 466.278ZM262.203 233.302C259.387 233.305 256.687 234.425 254.696 236.416C252.704 238.408 251.584 241.107 251.581 243.924V454.239C251.584 457.055 252.704 459.755 254.696 461.747C256.687 463.738 259.387 464.858 262.203 464.861H544.048C546.864 464.858 549.564 463.738 551.556 461.747C553.547 459.755 554.667 457.055 554.67 454.239V243.924C554.667 241.107 553.547 238.408 551.556 236.416C549.564 234.425 546.864 233.305 544.048 233.302H262.203Z" fill="#3F3D56"/>
<path d="M255.122 275.082C277.023 275.082 294.778 257.327 294.778 235.426C294.778 213.525 277.023 195.771 255.122 195.771C233.22 195.771 215.465 213.525 215.465 235.426C215.465 257.327 233.22 275.082 255.122 275.082Z" fill="#F9A826"/>
<path d="M251.191 250.554C250.299 250.555 249.43 250.267 248.716 249.732L248.672 249.698L239.352 242.563C238.921 242.233 238.558 241.82 238.286 241.349C238.014 240.879 237.837 240.359 237.766 239.82C237.695 239.281 237.73 238.733 237.87 238.208C238.011 237.683 238.253 237.19 238.584 236.759C238.915 236.327 239.327 235.965 239.798 235.693C240.268 235.42 240.788 235.244 241.327 235.172C241.866 235.101 242.414 235.136 242.939 235.277C243.465 235.417 243.957 235.659 244.389 235.99L250.425 240.619L264.691 222.015C265.021 221.584 265.434 221.222 265.905 220.95C266.376 220.678 266.895 220.501 267.434 220.43C267.973 220.359 268.521 220.394 269.046 220.535C269.572 220.676 270.064 220.918 270.496 221.249L270.407 221.369L270.498 221.251C271.368 221.92 271.938 222.907 272.081 223.995C272.225 225.083 271.931 226.184 271.264 227.056L254.485 248.938C254.097 249.442 253.598 249.85 253.027 250.13C252.455 250.411 251.827 250.555 251.191 250.554Z" fill="white"/>
<path d="M254.817 472.536C254.12 472.536 253.431 472.388 252.795 472.101H252.795L178.082 438.585C176.861 438.039 175.76 437.257 174.841 436.284C173.922 435.312 173.204 434.168 172.728 432.918C172.252 431.667 172.026 430.336 172.065 428.998C172.103 427.661 172.405 426.345 172.953 425.124C173.5 423.903 174.283 422.803 175.256 421.885C176.229 420.967 177.374 420.25 178.624 419.774C179.875 419.299 181.207 419.074 182.544 419.114C183.881 419.153 185.198 419.456 186.418 420.004L261.131 453.52C261.725 453.786 262.261 454.167 262.708 454.641C263.154 455.114 263.504 455.671 263.735 456.279C263.967 456.888 264.076 457.536 264.057 458.186C264.039 458.837 263.892 459.477 263.625 460.071L259.347 469.608C258.954 470.48 258.318 471.22 257.514 471.74C256.711 472.259 255.774 472.535 254.817 472.536Z" fill="#F9A826"/>
<path d="M270.514 564H0.708153C0.520339 564 0.340217 563.925 0.207413 563.793C0.0746082 563.66 0 563.48 0 563.292C0 563.104 0.0746082 562.924 0.207413 562.791C0.340217 562.658 0.520339 562.584 0.708153 562.584H270.514C270.702 562.584 270.882 562.658 271.015 562.791C271.148 562.924 271.222 563.104 271.222 563.292C271.222 563.48 271.148 563.66 271.015 563.793C270.882 563.925 270.702 564 270.514 564Z" fill="#3F3D56"/>
</g>
<defs>
<clipPath id="clip0_4_23">
<rect width="634" height="564" fill="white"/>
</clipPath>
</defs>
</svg>
