<svg width="1444" height="264" viewBox="0 0 1444 264" fill="none" xmlns="http://www.w3.org/2000/svg">
<path d="M0 264L34.3953 258C68.8908 252 137.681 240 206.372 233.5C275.062 227 343.652 226 412.342 228.2C481.033 230.3 549.823 235.7 618.714 230.5C687.605 225.3 756.395 209.7 825.286 191.8C894.177 174 962.968 154 1031.66 163.8C1100.35 173.7 1168.94 213.3 1237.63 215.8C1306.32 218.3 1375.11 183.7 1409.6 166.3L1444 149V0H1409.6C1375.11 0 1306.32 0 1237.63 0C1168.94 0 1100.35 0 1031.66 0C962.968 0 894.177 0 825.286 0C756.395 0 687.605 0 618.714 0C549.823 0 481.033 0 412.342 0C343.652 0 275.062 0 206.372 0C137.681 0 68.8908 0 34.3953 0H0V264Z" fill="#F6AE2D"/>
</svg>
