<svg width="1440" height="330" viewBox="0 0 1440 330" fill="none" xmlns="http://www.w3.org/2000/svg">
<path d="M1440 316.8L1405.6 316.48C1371.2 316.32 1302.4 315.68 1233.92 313.28C1165.28 310.88 1097.12 306.72 1028.48 294.88C960 283.2 891.2 264 822.72 275.2C754.08 286.4 685.92 328 617.28 329.12C548.8 330.08 480 290.72 411.52 286.72C342.88 282.72 274.72 314.08 206.08 320.32C137.6 326.4 68.7999 307.2 34.4 297.6L0 288V-1.59998H34.4C68.7999 -1.59998 137.6 -1.59998 206.08 -1.59998C274.72 -1.59998 342.88 -1.59998 411.52 -1.59998C480 -1.59998 548.8 -1.59998 617.28 -1.59998C685.92 -1.59998 754.08 -1.59998 822.72 -1.59998C891.2 -1.59998 960 -1.59998 1028.48 -1.59998C1097.12 -1.59998 1165.28 -1.59998 1233.92 -1.59998C1302.4 -1.59998 1371.2 -1.59998 1405.6 -1.59998H1440V316.8Z" fill="#FCAF3C"/>
<path d="M1440 291.2L1405.6 281.92C1371.2 272.48 1302.4 253.92 1233.92 240.32C1165.28 226.72 1097.12 218.08 1028.48 227.52C960 236.8 891.2 264 822.72 282.08C754.08 300.32 685.92 309.28 617.28 302.4C548.8 295.52 480 272.48 411.52 273.6C342.88 274.72 274.72 299.68 206.08 295.68C137.6 291.68 68.7999 258.72 34.4 242.08L0 225.6V-1.59998H34.4C68.7999 -1.59998 137.6 -1.59998 206.08 -1.59998C274.72 -1.59998 342.88 -1.59998 411.52 -1.59998C480 -1.59998 548.8 -1.59998 617.28 -1.59998C685.92 -1.59998 754.08 -1.59998 822.72 -1.59998C891.2 -1.59998 960 -1.59998 1028.48 -1.59998C1097.12 -1.59998 1165.28 -1.59998 1233.92 -1.59998C1302.4 -1.59998 1371.2 -1.59998 1405.6 -1.59998H1440V291.2Z" fill="#FBA230"/>
<path d="M1440 160L1405.6 168.48C1371.2 177.12 1302.4 194.08 1233.92 208C1165.28 221.92 1097.12 232.48 1028.48 230.08C960 227.68 891.2 212.32 822.72 201.28C754.08 190.4 685.92 184 617.28 189.92C548.8 195.68 480 213.92 411.52 210.72C342.88 207.52 274.72 182.88 206.08 173.28C137.6 163.68 68.7999 169.12 34.4 171.68L0 174.4V-1.59998H34.4C68.7999 -1.59998 137.6 -1.59998 206.08 -1.59998C274.72 -1.59998 342.88 -1.59998 411.52 -1.59998C480 -1.59998 548.8 -1.59998 617.28 -1.59998C685.92 -1.59998 754.08 -1.59998 822.72 -1.59998C891.2 -1.59998 960 -1.59998 1028.48 -1.59998C1097.12 -1.59998 1165.28 -1.59998 1233.92 -1.59998C1302.4 -1.59998 1371.2 -1.59998 1405.6 -1.59998H1440V160Z" fill="#FA9424"/>
<path d="M1440 187.2L1405.6 178.88C1371.2 170.72 1302.4 154.08 1233.92 142.4C1165.28 130.72 1097.12 123.68 1028.48 124C960 124.32 891.2 131.68 822.72 136.32C754.08 140.8 685.92 142.4 617.28 144.48C548.8 146.72 480 149.28 411.52 141.92C342.88 134.4 274.72 116.8 206.08 122.4C137.6 128 68.7999 156.8 34.4 171.2L0 185.6V-1.59998H34.4C68.7999 -1.59998 137.6 -1.59998 206.08 -1.59998C274.72 -1.59998 342.88 -1.59998 411.52 -1.59998C480 -1.59998 548.8 -1.59998 617.28 -1.59998C685.92 -1.59998 754.08 -1.59998 822.72 -1.59998C891.2 -1.59998 960 -1.59998 1028.48 -1.59998C1097.12 -1.59998 1165.28 -1.59998 1233.92 -1.59998C1302.4 -1.59998 1371.2 -1.59998 1405.6 -1.59998H1440V187.2Z" fill="#F98619"/>
<path d="M1440 56L1405.6 53.92C1371.2 51.68 1302.4 47.52 1233.92 55.2C1165.28 62.88 1097.12 82.72 1028.48 89.12C960 95.52 891.2 88.48 822.72 79.68C754.08 70.88 685.92 60.32 617.28 65.92C548.8 71.52 480 93.28 411.52 94.72C342.88 96 274.72 76.8 206.08 70.88C137.6 65.12 68.7999 72.48 34.4 76.32L0 80V-1.59998H34.4C68.7999 -1.59998 137.6 -1.59998 206.08 -1.59998C274.72 -1.59998 342.88 -1.59998 411.52 -1.59998C480 -1.59998 548.8 -1.59998 617.28 -1.59998C685.92 -1.59998 754.08 -1.59998 822.72 -1.59998C891.2 -1.59998 960 -1.59998 1028.48 -1.59998C1097.12 -1.59998 1165.28 -1.59998 1233.92 -1.59998C1302.4 -1.59998 1371.2 -1.59998 1405.6 -1.59998H1440V56Z" fill="#F7770F"/>
</svg>
